<?xml version="1.0" encoding="utf-8"?>
<!-- Generator: Adobe Illustrator 20.0.0, SVG Export Plug-In . SVG Version: 6.00 Build 0)  -->
<svg version="1.1" id="圖層_1" xmlns="http://www.w3.org/2000/svg" xmlns:xlink="http://www.w3.org/1999/xlink" x="0px" y="0px"
	 viewBox="0 0 478 67" style="enable-background:new 0 0 478 67;" xml:space="preserve">
<style type="text/css">
	.st0{fill-rule:evenodd;clip-rule:evenodd;fill:#00AFEC;}
	.st1{fill-rule:evenodd;clip-rule:evenodd;fill:#7ECEF4;}
	.st2{fill-rule:evenodd;clip-rule:evenodd;fill:#BAE3F9;}
	.st3{fill-rule:evenodd;clip-rule:evenodd;fill:#00A0E9;}
	.st4{fill-rule:evenodd;clip-rule:evenodd;fill:#ABCD03;}
	.st5{fill-rule:evenodd;clip-rule:evenodd;fill:#D9E480;}
	.st6{fill-rule:evenodd;clip-rule:evenodd;fill:#EEEF99;}
	.st7{fill-rule:evenodd;clip-rule:evenodd;fill:#63B73F;}
	.st8{fill-rule:evenodd;clip-rule:evenodd;fill:#008CD6;}
	.st9{fill-rule:evenodd;clip-rule:evenodd;fill:#00A040;}
	.st10{fill-rule:evenodd;clip-rule:evenodd;fill:#004E8F;}
</style>
<g>
	<path class="st0" d="M56.8,33.6C43.2,15.3,31.3,19.1,31.7,19.1c13.5-6.8,27,9.4,30.1,14.9L56.8,33.6L56.8,33.6z"/>
	<path class="st1" d="M49.5,32.7c-8-12.3-18.4-12.4-18.6-12.4c12.7-3.1,24.3,13.1,24.3,13.1l0,0.1l-5.4-0.7L49.5,32.7L49.5,32.7z"/>
	<path class="st2" d="M42.3,31.1c-0.5-0.6-1-1.2-1.5-1.8c-1.8-3-4.2-4.8-6-6c-0.5-0.4-1.1-0.7-1.7-1.1c8,1.9,12.2,7.2,13.8,9.7
		L42.3,31.1L42.3,31.1z"/>
	<path class="st3" d="M69,34.2c-0.1,0-5.4-0.4-5.3-0.4C57.9,26,52,19.7,44.2,17.2c-3.8-1.2-6.8-1-9.5-0.2c2.9-1.6,6.6-1.8,9.9-1.3
		C58,17.5,67.2,31.2,69,34.2L69,34.2z"/>
	<path class="st4" d="M22.7,33.8C36.3,52,48.3,48.3,47.9,48.3c-13.5,6.8-27-9.4-30.1-14.9L22.7,33.8L22.7,33.8z"/>
	<path class="st5" d="M30,34.7C38,47,48.4,47.1,48.5,47.1C35.9,50.2,24.3,34,24.3,34l0-0.1l5.4,0.7L30,34.7L30,34.7z"/>
	<path class="st6" d="M37.2,36.3c0.5,0.6,1,1.2,1.5,1.8c1.8,3,4.2,4.8,6,6c0.5,0.4,1.1,0.7,1.7,1.1c-8-1.9-12.2-7.2-13.8-9.7
		L37.2,36.3L37.2,36.3z"/>
	<path class="st7" d="M10.5,33.2c0.1,0,5.4,0.4,5.3,0.4c5.8,7.8,11.7,14.1,19.5,16.6c3.8,1.2,6.8,1,9.5,0.2
		c-2.9,1.6-6.6,1.8-9.9,1.3C21.5,49.9,12.4,36.2,10.5,33.2L10.5,33.2z"/>
	<path class="st8" d="M6.2,29.8c3.2-4,13.9-16.8,22.4-24c15.2-12.9,34.7,8,45,22.7c0.9,2.3,0.6,3.8-0.6,4.9c0,0-0.1,0.1-0.1,0.1
		c-0.3,0.2-0.5,0.4-0.7,0.5c-0.1,0-0.3,0.1-0.8,0.1C58.2,15.2,43,7.6,23.2,21.1c0,0,0.1,0,0.1,0c-0.4,0.1-0.8,0.2-1.1,0.3
		c11.8,1.5,11,10,10.7,10.5c-12.6-8.2-28.1-0.6-28.1-0.6C5.2,30.8,5.7,30.3,6.2,29.8L6.2,29.8z"/>
	<path class="st9" d="M73.3,37.6c-3.2,4-13.9,16.8-22.4,24c-15.2,12.9-34.7-8-45-22.7C5.1,36.6,5.4,35,6.6,34c0,0,0.1-0.1,0.1-0.1
		c0.3-0.2,0.5-0.4,0.7-0.5c0.1,0,0.3-0.1,0.8-0.1c13.1,18.9,28.3,26.5,48.1,13c0,0-0.1,0-0.1,0c0.4-0.1,0.8-0.2,1.1-0.3
		c-11.8-1.5-11-10-10.7-10.5c12.6,8.2,28.1,0.6,28.1,0.6C74.3,36.6,73.9,37,73.3,37.6L73.3,37.6z"/>
	<path class="st10" d="M100.6,58.1l2.2,0.6c-0.5,1.8-1.3,3.2-2.5,4.2c-1.2,1-2.7,1.4-4.4,1.4c-1.8,0-3.3-0.4-4.4-1.1
		c-1.1-0.7-2-1.8-2.6-3.2C88.3,58.5,88,57,88,55.4c0-1.7,0.3-3.3,1-4.6c0.7-1.3,1.6-2.3,2.8-3c1.2-0.7,2.6-1,4.1-1
		c1.7,0,3.1,0.4,4.2,1.3c1.1,0.9,1.9,2,2.4,3.6l-2.2,0.5c-0.4-1.2-1-2.1-1.7-2.7c-0.7-0.6-1.7-0.8-2.8-0.8c-1.3,0-2.4,0.3-3.2,0.9
		c-0.9,0.6-1.5,1.4-1.8,2.5c-0.4,1-0.5,2.1-0.5,3.2c0,1.4,0.2,2.7,0.6,3.7c0.4,1.1,1.1,1.9,1.9,2.4c0.9,0.5,1.8,0.8,2.8,0.8
		c1.2,0,2.3-0.4,3.1-1.1C99.7,60.5,100.3,59.5,100.6,58.1L100.6,58.1z M106.3,63.9V47.2h2.1v6c1-1.1,2.2-1.7,3.6-1.7
		c0.9,0,1.7,0.2,2.3,0.5c0.7,0.4,1.1,0.8,1.4,1.5c0.3,0.6,0.4,1.5,0.4,2.7v7.7h-2.1v-7.7c0-1-0.2-1.8-0.7-2.2
		c-0.4-0.5-1.1-0.7-1.9-0.7c-0.6,0-1.2,0.2-1.7,0.5s-0.9,0.7-1.1,1.3c-0.2,0.5-0.3,1.3-0.3,2.2v6.6H106.3L106.3,63.9z M128.7,60
		l2.1,0.3c-0.3,1.2-1,2.2-1.9,2.9c-0.9,0.7-2.1,1-3.5,1c-1.8,0-3.2-0.5-4.2-1.6c-1-1.1-1.6-2.6-1.6-4.6c0-2,0.5-3.6,1.6-4.7
		c1.1-1.1,2.4-1.7,4.1-1.7c1.6,0,2.9,0.6,4,1.7c1,1.1,1.5,2.7,1.5,4.7c0,0.1,0,0.3,0,0.5h-9c0.1,1.3,0.5,2.4,1.1,3.1
		c0.7,0.7,1.5,1.1,2.5,1.1c0.8,0,1.4-0.2,1.9-0.6C127.9,61.5,128.3,60.9,128.7,60L128.7,60z M121.9,56.7h6.8c-0.1-1-0.4-1.8-0.8-2.3
		c-0.7-0.8-1.5-1.2-2.5-1.2c-0.9,0-1.7,0.3-2.4,0.9C122.3,54.8,122,55.6,121.9,56.7L121.9,56.7z M134.4,63.9V51.8h1.8v1.7
		c0.9-1.3,2.2-2,3.9-2c0.7,0,1.4,0.1,2,0.4c0.6,0.3,1.1,0.6,1.4,1c0.3,0.4,0.5,0.9,0.6,1.5c0.1,0.4,0.1,1,0.1,2v7.5h-2.1v-7.4
		c0-0.8-0.1-1.5-0.2-1.9c-0.2-0.4-0.4-0.7-0.8-1c-0.4-0.2-0.9-0.4-1.4-0.4c-0.9,0-1.6,0.3-2.3,0.8c-0.6,0.6-1,1.6-1,3.2v6.6H134.4
		L134.4,63.9z M153.8,63.9V47.2h2.2v14.8h8.2v2H153.8L153.8,63.9z M167.7,49.6v-2.4h2.1v2.4H167.7L167.7,49.6z M167.7,63.9V51.8h2.1
		v12.1H167.7L167.7,63.9z M179.7,63.9V47.2h2.2v16.7H179.7L179.7,63.9z M186.6,63.9V51.8h1.8v1.7c0.9-1.3,2.2-2,3.9-2
		c0.7,0,1.4,0.1,2,0.4c0.6,0.3,1.1,0.6,1.4,1c0.3,0.4,0.5,0.9,0.6,1.5c0.1,0.4,0.1,1,0.1,2v7.5h-2.1v-7.4c0-0.8-0.1-1.5-0.2-1.9
		c-0.2-0.4-0.4-0.7-0.8-1c-0.4-0.2-0.9-0.4-1.4-0.4c-0.9,0-1.6,0.3-2.3,0.8c-0.6,0.6-1,1.6-1,3.2v6.6H186.6L186.6,63.9z M199.8,60.3
		l2-0.3c0.1,0.8,0.4,1.4,1,1.9c0.5,0.4,1.2,0.7,2.2,0.7c0.9,0,1.6-0.2,2.1-0.6c0.5-0.4,0.7-0.8,0.7-1.4c0-0.5-0.2-0.8-0.6-1.1
		c-0.3-0.2-1-0.4-2.1-0.7c-1.5-0.4-2.6-0.7-3.1-1c-0.6-0.3-1-0.7-1.3-1.2c-0.3-0.5-0.5-1-0.5-1.6c0-0.5,0.1-1,0.4-1.5
		c0.2-0.5,0.6-0.8,1-1.1c0.3-0.2,0.8-0.4,1.3-0.6c0.6-0.2,1.1-0.2,1.8-0.2c1,0,1.8,0.1,2.5,0.4c0.7,0.3,1.3,0.6,1.6,1.1
		c0.3,0.5,0.6,1.1,0.7,1.9l-2,0.3c-0.1-0.6-0.4-1.1-0.8-1.5c-0.4-0.4-1.1-0.5-1.9-0.5c-0.9,0-1.6,0.2-2,0.5
		c-0.4,0.3-0.6,0.7-0.6,1.1c0,0.3,0.1,0.5,0.3,0.7c0.2,0.2,0.4,0.4,0.8,0.5c0.2,0.1,0.8,0.2,1.8,0.5c1.5,0.4,2.5,0.7,3,1
		c0.6,0.2,1,0.6,1.4,1.1c0.3,0.5,0.5,1.1,0.5,1.8c0,0.7-0.2,1.3-0.6,1.9c-0.4,0.6-1,1.1-1.7,1.4c-0.8,0.3-1.6,0.5-2.6,0.5
		c-1.6,0-2.8-0.3-3.6-1C200.6,62.6,200.1,61.6,199.8,60.3L199.8,60.3z M221.3,63.9v-1.8c-0.9,1.4-2.2,2.1-3.8,2.1
		c-0.7,0-1.4-0.1-2-0.4c-0.6-0.3-1.1-0.6-1.4-1c-0.3-0.4-0.5-0.9-0.6-1.5c-0.1-0.4-0.1-1-0.1-1.9v-7.5h2.1v6.7c0,1.1,0,1.8,0.1,2.2
		c0.1,0.5,0.4,1,0.8,1.3c0.4,0.3,0.9,0.5,1.6,0.5c0.6,0,1.2-0.2,1.7-0.5c0.5-0.3,0.9-0.7,1.1-1.3c0.2-0.5,0.3-1.3,0.3-2.4v-6.5h2.1
		v12.1H221.3L221.3,63.9z M227.4,63.9V51.8h1.8v1.8c0.5-0.9,0.9-1.4,1.3-1.7c0.4-0.3,0.8-0.4,1.3-0.4c0.7,0,1.4,0.2,2.1,0.7
		l-0.7,1.9c-0.5-0.3-1-0.4-1.5-0.4c-0.5,0-0.9,0.1-1.2,0.4c-0.4,0.3-0.6,0.6-0.8,1.1c-0.2,0.7-0.3,1.5-0.3,2.4v6.3H227.4L227.4,63.9
		z M244.1,62.4c-0.8,0.6-1.5,1.1-2.2,1.4c-0.7,0.3-1.5,0.4-2.3,0.4c-1.3,0-2.4-0.3-3.1-1c-0.7-0.7-1.1-1.5-1.1-2.5
		c0-0.6,0.1-1.1,0.4-1.6c0.3-0.5,0.6-0.9,1.1-1.2c0.4-0.3,0.9-0.5,1.5-0.7c0.4-0.1,1-0.2,1.8-0.3c1.7-0.2,2.9-0.4,3.7-0.7
		c0-0.3,0-0.5,0-0.5c0-0.8-0.2-1.4-0.6-1.8c-0.5-0.5-1.3-0.7-2.3-0.7c-1,0-1.7,0.2-2.1,0.5c-0.5,0.3-0.8,0.9-1,1.8l-2-0.3
		c0.2-0.9,0.5-1.6,0.9-2.1c0.4-0.5,1-0.9,1.8-1.2c0.8-0.3,1.7-0.4,2.8-0.4c1,0,1.9,0.1,2.5,0.4c0.6,0.2,1.1,0.5,1.4,0.9
		c0.3,0.4,0.5,0.8,0.6,1.4c0.1,0.4,0.1,1,0.1,1.9v2.7c0,1.9,0,3.1,0.1,3.6c0.1,0.5,0.3,1,0.5,1.5h-2.1
		C244.3,63.5,244.2,63,244.1,62.4L244.1,62.4z M244,57.8c-0.7,0.3-1.9,0.6-3.4,0.8c-0.8,0.1-1.4,0.3-1.8,0.4
		c-0.4,0.2-0.6,0.4-0.8,0.7c-0.2,0.3-0.3,0.6-0.3,1c0,0.5,0.2,1,0.6,1.4c0.4,0.4,1,0.5,1.8,0.5c0.8,0,1.5-0.2,2.1-0.5
		c0.6-0.3,1.1-0.8,1.4-1.4c0.2-0.5,0.3-1.1,0.3-2.1V57.8L244,57.8z M250.3,63.9V51.8h1.8v1.7c0.9-1.3,2.2-2,3.9-2
		c0.7,0,1.4,0.1,2,0.4c0.6,0.3,1.1,0.6,1.4,1c0.3,0.4,0.5,0.9,0.6,1.5c0.1,0.4,0.1,1,0.1,2v7.5h-2.1v-7.4c0-0.8-0.1-1.5-0.2-1.9
		c-0.2-0.4-0.4-0.7-0.8-1c-0.4-0.2-0.9-0.4-1.4-0.4c-0.9,0-1.6,0.3-2.3,0.8c-0.6,0.6-1,1.6-1,3.2v6.6H250.3L250.3,63.9z M272.2,59.5
		l2,0.3c-0.2,1.4-0.8,2.5-1.7,3.3c-0.9,0.8-2,1.2-3.4,1.2c-1.7,0-3-0.5-4-1.6c-1-1.1-1.5-2.6-1.5-4.7c0-1.3,0.2-2.5,0.7-3.4
		c0.4-1,1.1-1.7,2-2.2c0.9-0.5,1.9-0.7,2.9-0.7c1.3,0,2.4,0.3,3.2,1c0.8,0.7,1.4,1.6,1.6,2.8l-2,0.3c-0.2-0.8-0.5-1.4-1-1.8
		c-0.5-0.4-1.1-0.6-1.8-0.6c-1,0-1.9,0.4-2.5,1.1c-0.6,0.7-1,1.9-1,3.5c0,1.6,0.3,2.8,0.9,3.6c0.6,0.7,1.4,1.1,2.4,1.1
		c0.8,0,1.5-0.2,2-0.7C271.7,61.3,272.1,60.5,272.2,59.5L272.2,59.5z M285.3,60l2.1,0.3c-0.3,1.2-1,2.2-1.9,2.9
		c-0.9,0.7-2.1,1-3.5,1c-1.8,0-3.2-0.5-4.2-1.6c-1-1.1-1.6-2.6-1.6-4.6c0-2,0.5-3.6,1.6-4.7c1.1-1.1,2.4-1.7,4.1-1.7
		c1.6,0,2.9,0.6,4,1.7c1,1.1,1.5,2.7,1.5,4.7c0,0.1,0,0.3,0,0.5h-9c0.1,1.3,0.5,2.4,1.1,3.1c0.7,0.7,1.5,1.1,2.5,1.1
		c0.8,0,1.4-0.2,1.9-0.6C284.6,61.5,285,60.9,285.3,60L285.3,60z M278.6,56.7h6.8c-0.1-1-0.4-1.8-0.8-2.3c-0.7-0.8-1.5-1.2-2.5-1.2
		c-0.9,0-1.7,0.3-2.4,0.9C279,54.8,278.6,55.6,278.6,56.7L278.6,56.7z M296.4,63.9V47.2h6.3c1.3,0,2.3,0.2,3.1,0.5
		c0.8,0.3,1.4,0.9,1.8,1.6c0.4,0.7,0.7,1.4,0.7,2.2c0,0.7-0.2,1.4-0.6,2c-0.4,0.6-1,1.1-1.8,1.5c1,0.3,1.8,0.8,2.3,1.5
		c0.5,0.7,0.8,1.6,0.8,2.5c0,0.8-0.2,1.5-0.5,2.2c-0.3,0.7-0.7,1.2-1.2,1.6c-0.5,0.4-1.1,0.6-1.8,0.8c-0.7,0.2-1.6,0.3-2.7,0.3
		H296.4L296.4,63.9z M298.6,54.2h3.6c1,0,1.7-0.1,2.1-0.2c0.6-0.2,1-0.4,1.3-0.8c0.3-0.4,0.4-0.9,0.4-1.5c0-0.6-0.1-1-0.4-1.5
		c-0.3-0.4-0.7-0.7-1.1-0.9c-0.5-0.2-1.3-0.2-2.5-0.2h-3.3V54.2L298.6,54.2z M298.6,61.9h4.2c0.7,0,1.2,0,1.5-0.1
		c0.5-0.1,0.9-0.2,1.3-0.5c0.3-0.2,0.6-0.5,0.8-0.9c0.2-0.4,0.3-0.9,0.3-1.4c0-0.6-0.2-1.2-0.5-1.6c-0.3-0.5-0.8-0.8-1.3-1
		c-0.6-0.2-1.4-0.3-2.4-0.3h-3.9V61.9L298.6,61.9z M312.8,63.9V51.8h1.8v1.8c0.5-0.9,0.9-1.4,1.3-1.7c0.4-0.3,0.8-0.4,1.3-0.4
		c0.7,0,1.4,0.2,2.1,0.7l-0.7,1.9c-0.5-0.3-1-0.4-1.5-0.4c-0.5,0-0.9,0.1-1.2,0.4c-0.4,0.3-0.6,0.6-0.8,1.1
		c-0.2,0.7-0.3,1.5-0.3,2.4v6.3H312.8L312.8,63.9z M320.9,57.9c0-2.2,0.6-3.9,1.9-5c1-0.9,2.3-1.3,3.8-1.3c1.7,0,3,0.5,4.1,1.6
		c1.1,1.1,1.6,2.6,1.6,4.5c0,1.6-0.2,2.8-0.7,3.7c-0.5,0.9-1.1,1.6-2,2.1c-0.9,0.5-1.9,0.7-2.9,0.7c-1.7,0-3.1-0.5-4.1-1.6
		C321.4,61.5,320.9,59.9,320.9,57.9L320.9,57.9z M323,57.9c0,1.6,0.3,2.7,1,3.5c0.7,0.8,1.5,1.2,2.6,1.2c1,0,1.9-0.4,2.5-1.2
		c0.7-0.8,1-2,1-3.5c0-1.5-0.3-2.6-1-3.4c-0.7-0.8-1.5-1.2-2.5-1.2c-1,0-1.9,0.4-2.6,1.2C323.4,55.1,323,56.3,323,57.9L323,57.9z
		 M335.7,63.9V47.2h2.1v9.5l4.9-4.9h2.7l-4.6,4.5l5.1,7.6h-2.5l-4-6.2l-1.4,1.4v4.8H335.7L335.7,63.9z M356.7,60l2.1,0.3
		c-0.3,1.2-1,2.2-1.9,2.9c-0.9,0.7-2.1,1-3.5,1c-1.8,0-3.2-0.5-4.2-1.6c-1-1.1-1.6-2.6-1.6-4.6c0-2,0.5-3.6,1.6-4.7
		c1.1-1.1,2.4-1.7,4.1-1.7c1.6,0,2.9,0.6,4,1.7c1,1.1,1.5,2.7,1.5,4.7c0,0.1,0,0.3,0,0.5h-9c0.1,1.3,0.5,2.4,1.1,3.1
		c0.7,0.7,1.5,1.1,2.5,1.1c0.8,0,1.4-0.2,1.9-0.6C356,61.5,356.4,60.9,356.7,60L356.7,60z M350,56.7h6.8c-0.1-1-0.4-1.8-0.8-2.3
		c-0.7-0.8-1.5-1.2-2.5-1.2c-0.9,0-1.7,0.3-2.4,0.9C350.4,54.8,350.1,55.6,350,56.7L350,56.7z M362.5,63.9V51.8h1.8v1.8
		c0.5-0.9,0.9-1.4,1.3-1.7c0.4-0.3,0.8-0.4,1.3-0.4c0.7,0,1.4,0.2,2.1,0.7l-0.7,1.9c-0.5-0.3-1-0.4-1.5-0.4c-0.5,0-0.9,0.1-1.2,0.4
		c-0.4,0.3-0.6,0.6-0.8,1.1c-0.2,0.7-0.3,1.5-0.3,2.4v6.3H362.5L362.5,63.9z M388.7,58.1l2.2,0.6c-0.5,1.8-1.3,3.2-2.5,4.2
		c-1.2,1-2.7,1.4-4.4,1.4c-1.8,0-3.3-0.4-4.4-1.1c-1.1-0.7-2-1.8-2.6-3.2c-0.6-1.4-0.9-2.9-0.9-4.5c0-1.7,0.3-3.3,1-4.6
		c0.7-1.3,1.6-2.3,2.8-3c1.2-0.7,2.6-1,4.1-1c1.7,0,3.1,0.4,4.2,1.3c1.1,0.9,1.9,2,2.4,3.6l-2.2,0.5c-0.4-1.2-1-2.1-1.7-2.7
		c-0.7-0.6-1.7-0.8-2.8-0.8c-1.3,0-2.4,0.3-3.2,0.9c-0.9,0.6-1.5,1.4-1.8,2.5c-0.4,1-0.5,2.1-0.5,3.2c0,1.4,0.2,2.7,0.6,3.7
		c0.4,1.1,1.1,1.9,1.9,2.4c0.9,0.5,1.8,0.8,2.8,0.8c1.2,0,2.3-0.4,3.1-1.1C387.8,60.5,388.4,59.5,388.7,58.1L388.7,58.1z M394,55.8
		c0-2.8,0.7-5,2.2-6.5c1.5-1.6,3.4-2.4,5.8-2.4c1.5,0,2.9,0.4,4.2,1.1c1.2,0.7,2.2,1.8,2.8,3.1c0.7,1.3,1,2.8,1,4.5
		c0,1.7-0.3,3.2-1,4.6c-0.7,1.3-1.7,2.4-2.9,3c-1.3,0.7-2.6,1-4.1,1c-1.6,0-3-0.4-4.2-1.1c-1.2-0.8-2.2-1.8-2.8-3.1
		C394.3,58.6,394,57.2,394,55.8L394,55.8z M396.3,55.8c0,2,0.5,3.6,1.6,4.8c1.1,1.2,2.4,1.7,4.1,1.7c1.7,0,3-0.6,4.1-1.8
		c1.1-1.2,1.6-2.8,1.6-5c0-1.4-0.2-2.5-0.7-3.6c-0.5-1-1.1-1.8-2-2.4c-0.9-0.6-1.9-0.8-3-0.8c-1.6,0-2.9,0.5-4,1.6
		C396.8,51.5,396.3,53.3,396.3,55.8L396.3,55.8z M414.2,63.9v-2.3h2.3v2.3H414.2L414.2,63.9z M426.9,63.9v-2.3h2.3v2.3
		c0,0.9-0.2,1.6-0.5,2.1c-0.3,0.5-0.8,0.9-1.4,1.2l-0.6-0.9c0.4-0.2,0.8-0.5,1-0.8c0.2-0.4,0.3-0.9,0.3-1.6H426.9L426.9,63.9z
		 M439.2,63.9V47.2h2.2v14.8h8.2v2H439.2L439.2,63.9z M457.6,62.1l0.3,1.8c-0.6,0.1-1.1,0.2-1.6,0.2c-0.7,0-1.3-0.1-1.7-0.4
		c-0.4-0.2-0.7-0.5-0.9-0.9c-0.2-0.4-0.3-1.2-0.3-2.4v-7H452v-1.6h1.5v-3l2-1.2v4.2h2.1v1.6h-2.1v7.1c0,0.6,0,1,0.1,1.1
		c0.1,0.2,0.2,0.3,0.4,0.4c0.2,0.1,0.4,0.1,0.7,0.1C456.9,62.2,457.2,62.1,457.6,62.1L457.6,62.1z M468.5,63.9v-1.5
		c-0.8,1.2-1.9,1.8-3.4,1.8c-1,0-1.9-0.3-2.7-0.8c-0.8-0.5-1.4-1.3-1.9-2.2c-0.4-1-0.7-2-0.7-3.3c0-1.2,0.2-2.3,0.6-3.3
		c0.4-1,1-1.7,1.8-2.3c0.8-0.5,1.7-0.8,2.7-0.8c0.7,0,1.4,0.2,1.9,0.5c0.6,0.3,1,0.7,1.4,1.2v-6h2v16.7H468.5L468.5,63.9z M462,57.9
		c0,1.6,0.3,2.7,1,3.5c0.7,0.8,1.4,1.2,2.3,1.2c0.9,0,1.7-0.4,2.3-1.1c0.6-0.7,0.9-1.9,0.9-3.4c0-1.7-0.3-2.9-1-3.7
		c-0.6-0.8-1.4-1.2-2.4-1.2c-0.9,0-1.7,0.4-2.3,1.1C462.3,55.1,462,56.3,462,57.9L462,57.9z"/>
	<g>
		<path class="st10" d="M101.1,39.8c0.1-0.6,0.1-2.8,0-6.6c0-0.1,0-0.3,0-0.4c0,0,0-0.1,0.1-0.1c0.5-0.2,0.9-0.5,1.1-0.7
			c0.2-0.2,0.3-0.4,0.5-0.6c0.1-0.2,0.1-0.4,0-0.6c-0.1-0.2-0.2-0.4-0.4-0.5c-0.1-0.1-0.3-0.2-0.4-0.3c-0.1-0.1-0.2-0.1-0.3-0.1
			c-0.1,0-0.3,0-0.6,0.1c0,0-0.1,0-0.1,0c0-0.4,0-0.9,0-1.3c0.1-0.1,0.2-0.1,0.2-0.1c0.1-0.1,0.3-0.2,0.5-0.3c0.3,0.5,0.7,1.2,1.2,2
			c0.7,1.1,1.2,2,1.5,2.7c0.4,0.9,1,1.8,1.7,2.7c0.9,1.1,1.6,2,2.3,2.5c0.5,0.4,1,0.7,1.4,0.9c0.3,0.1,0.7,0.1,1.2-0.1
			c0.5-0.1,1.1-0.3,1.8-0.4c0.7-0.1,1.3-0.3,1.8-0.6c0.4-0.2,0.5-0.4,0.4-0.6c-0.2-0.3-0.5-0.7-0.9-1c-0.4-0.3-1-0.7-1.8-1
			c-0.6-0.2-1.5-0.9-2.8-2c-1.5-1.3-3-2.8-4.2-4.3c-0.4-0.5-0.7-0.9-1.1-1.2c0.7-0.1,1.5-0.2,2.4-0.5c0.8-0.2,1.7-0.6,2.5-1
			c0.4-0.2,0.6-0.4,0.6-0.6c0-0.1,0.1-0.3,0.1-0.4c0-0.1,0-0.2,0-0.3c0-0.3-0.2-0.6-0.5-0.9c-0.3-0.3-0.7-0.4-1.2-0.4
			c-0.4,0-0.7,0-0.9-0.2c-0.2-0.1-0.4,0-0.5,0.4c-0.1,0.3-0.5,0.7-1.2,1.4c-0.5,0.5-1.2,1.1-2,1.7c-0.2-0.2-0.4-0.4-0.5-0.4
			c-0.1,0-0.1,0-0.2-0.1c-0.1-0.2-0.2-0.4-0.3-0.5c-0.1-0.1-0.3-0.2-0.4-0.3c-0.1-0.1-0.2-0.1-0.3-0.1c-0.1,0-0.3,0-0.5,0.1
			c0-0.4,0-0.9,0.1-1.4c0.1,0,0.1,0,0.2-0.1c0.6-0.2,1-0.5,1.2-0.7c0.2-0.2,0.4-0.4,0.5-0.6c0.1-0.2,0.2-0.4,0.1-0.6
			c-0.1-0.2-0.2-0.4-0.3-0.6c-0.1-0.1-0.2-0.3-0.3-0.3c-0.1-0.1-0.2-0.1-0.3-0.1c-0.1,0-0.3,0-0.5,0.1c-0.1,0-0.3,0.1-0.4,0.1
			c0,0,0,0-0.1-0.1c0.2-0.1,0.5-0.2,0.7-0.4c0.9-0.5,1.5-0.9,2-1.3c0.4-0.4,0.7-0.7,0.9-1c0.1-0.2,0.4-0.4,0.6-0.6
			c0.1-0.1,0.2-0.4,0.2-0.8c0-0.3-0.1-0.6-0.2-0.8c-0.1-0.2-1-0.7-2.6-1.6c-0.3-0.2-0.6-0.3-0.8-0.4c-0.2-0.1-0.4-0.1-0.6-0.1
			c-2.2,0.6-4.3,1.1-6.2,1.6c-0.3,0-0.5,0-0.7-0.2c-0.1-0.1-0.3-0.2-0.6-0.1C94,16,93.9,16.2,94,16.4c0.1,0.2,0.1,0.4,0.1,0.5
			c0,0.2,0,0.4,0.2,0.7c0.1,0.2,0.3,0.5,0.6,0.9c0.6,0.7,1,1.2,1.3,1.2c0.2,0.1,0.4,0.1,0.7-0.2c1.3-1.3,2.5-2.3,3.7-3
			c0.4-0.2,0.6-0.3,0.7-0.2c0.1,0.1,0.1,0.2,0.2,0.5c0.1,0.3-0.1,0.8-0.4,1.6c-0.3,0.8-0.7,1.5-1,2.1c0,0,0,0,0-0.1
			c-0.2-0.1-0.4-0.3-0.7-0.5c-0.2-0.1-0.4-0.3-0.7-0.3c-0.2,0-0.4,0-0.6,0c-0.2,0-0.3,0.1-0.4,0.3c-0.1,0.2-0.2,0.3-0.3,0.4
			c-0.1,0.1-0.2,0.3-0.1,0.6c0.1,0.5,0.3,0.8,0.4,1.1c0.1,0.1,0.1,0.3,0.2,0.6c-0.5,0.1-1,0.3-1.6,0.5c-0.4,0.1-0.9,0.2-1.2,0.2
			c-0.3,0-0.4,0.2-0.2,0.5c0.2,0.5,0.6,1.1,1.1,1.6c0.4,0.4,0.8,0.7,1.1,0.7c0.2,0,0.5,0,0.8-0.1c0,0.3,0,0.6-0.1,0.9
			c-0.4,0.1-0.9,0.3-1.3,0.5c-0.1,0-0.2,0.1-0.3,0.1c0-0.3-0.1-0.5-0.2-0.6c-0.2-0.1-1.2-0.4-3.1-0.9c-0.3-0.1-0.5,0-0.6,0.1
			c-0.2,0.3-0.8,0.7-1.9,1.2c-1.2,0.6-2,1-2.3,1.1c-0.2,0-0.4,0-0.6,0.1c-0.2,0-0.2,0.2-0.2,0.4c0.1,0.3,0.3,0.6,0.6,1
			c0.3,0.3,0.6,0.5,0.9,0.6c0.3,0.1,0.6,0.1,1,0c0.3-0.1,0.6-0.1,0.9-0.2c0.4-0.2,0.9-0.5,1.2-0.9c0.2-0.1,0.4-0.1,0.5-0.1
			c0.1,0,0.1,0.2,0,0.7c-0.4,1-0.8,1.9-1.3,2.7c-0.4,0.8-1,1.6-1.7,2.6c-0.3,0.5-0.8,1.3-1.5,2.1c-0.4,0.6-0.6,0.9-0.6,1
			c0.1,0.1,0.3,0.1,0.6,0c1.2-0.4,2.2-1,2.9-1.5c0.7-0.6,1.5-1.3,2.2-2.3c0.4-0.5,0.8-1.3,1.2-2.2c0.1-0.4,0.4-1.1,0.8-2
			c0.2-0.7,0.4-1.2,0.6-1.5c0.2,0.3,0.4,0.6,0.7,0.9c0.4,0.4,0.8,0.6,1.1,0.6c0,0,0.1,0,0.2,0c0,0.2,0,0.5,0,0.7
			c-0.4,0.1-0.9,0.3-1.4,0.5C95.7,31.9,95.3,32,95,32c-0.3,0-0.4,0.2-0.2,0.5c0.2,0.5,0.6,1,1.2,1.6c0.4,0.4,0.8,0.6,1.2,0.6
			c0.1,0,0.3,0,0.4,0c0,1.6,0,3.1,0,4.4c0,0.4-0.2,0.6-0.5,0.6c-0.3,0-0.6-0.1-0.9-0.1c-0.4,0-0.8,0-1.1,0c-0.2,0-0.2,0.2,0,0.5
			c0.3,0.3,0.6,0.5,1,0.8c0.3,0.2,0.6,0.5,1,0.9c0.2,0.2,0.4,0.4,0.6,0.7c0.1,0.2,0.3,0.3,0.3,0.4c0.1,0.1,0.3,0.2,0.6,0.1
			c0.3-0.1,0.6-0.3,0.9-0.5c0.4-0.4,0.8-0.9,1-1.3C100.8,40.7,101,40.2,101.1,39.8L101.1,39.8z M131.7,23.3
			c-0.3,2.9-0.3,4.7-0.2,5.4c0.1,0.6,0.3,1,0.6,1.3c0.3,0.3,0.6,0.6,0.8,0.9c0.1,0.2,0.2,0.3,0.4,0.2c0.1,0,0.3-0.1,0.6-0.3
			c0.2-0.2,0.4-0.4,0.6-0.6c0.1-0.2,0.2-0.5,0.3-0.8c0.2-0.6,0.3-1.1,0.3-1.5c0-0.3,0-0.8-0.1-1.4c0-0.7-0.1-1.4-0.3-2.2
			c-0.1-0.6-0.4-1.1-0.7-1.4c-0.4-0.4-0.9-0.7-1.5-0.8c-0.5-0.1-0.8-0.1-0.9-0.1c-0.1,0.1-0.1,0.2-0.1,0.4
			C131.7,22.5,131.7,22.9,131.7,23.3L131.7,23.3z M129.1,29.8c-0.6-0.2-1.2-0.3-2-0.2c0-1,0-2.1,0-3.2c0.1,0,0.1-0.1,0.2-0.1
			c1-0.4,1.7-0.8,2.1-1.2c0.2-0.3,0.4-0.5,0.6-0.8c0.2-0.3,0.2-0.5,0.1-0.8c-0.1-0.2-0.3-0.5-0.5-0.7c-0.1-0.2-0.3-0.3-0.4-0.4
			c-0.1-0.1-0.2-0.1-0.4-0.1c-0.2,0-0.4,0-0.7,0.1c-0.3,0.1-0.6,0.2-0.9,0.3c0,0,0,0,0-0.1c0-1,0.1-1.8,0.3-2.4
			c0.1-0.2,0.1-0.3,0.1-0.5c0.3-0.1,0.7-0.2,1.2-0.4c0.4-0.2,0.7-0.4,0.7-0.6c0.1-0.1,0.1-0.3,0.2-0.4c0.1-0.1,0.1-0.2,0.1-0.3
			c0-0.3-0.2-0.7-0.5-1.1c-0.3-0.4-0.8-0.6-1.3-0.6c-0.4-0.1-0.8-0.2-1-0.3c-0.2-0.1-0.4,0-0.7,0.3c-0.2,0.3-0.8,0.8-1.7,1.6
			c-0.9,0.6-1.9,1.3-3.1,1.9c-0.4,0.1-0.7,0.2-0.9,0.3c-0.2,0-0.2,0.1,0.1,0.2c0.2,0.1,0.5,0.1,0.9,0.2c0.9,0.1,1.9,0.1,3.1,0
			c0.1,0.6,0.1,1.4,0.2,2.5c0,0.2,0,0.4,0,0.7c-0.6,0.2-1.1,0.4-1.6,0.6c-1.1,0.4-2.3,0.9-3.6,1.3c-0.7,0.2-1.4,0.4-2,0.4
			c-0.4,0-0.5,0.3-0.3,0.7c0.3,0.6,0.7,1.3,1.4,2c0.5,0.6,1,0.8,1.4,0.9c0.4,0,0.9-0.1,1.3-0.4c0.7-0.4,1.3-0.7,2-1.1
			c-0.3,0.6-0.7,1.4-1.3,2.3c-1,1.7-2.1,2.9-3.2,3.9c-0.2,0.1-0.4,0.1-0.6,0.2c-0.2,0-0.3,0.1-0.2,0.2c0.1,0.2,0.2,0.3,0.4,0.3
			c0.3,0,0.6,0.1,0.9,0.2c0.2,0.1,0.6,0.1,1.1-0.1c1.6-0.8,2.8-1.7,3.7-2.8c0.1-0.2,0.3-0.4,0.4-0.6c0,0.1,0,0.3,0,0.5
			c-0.1,1.4-0.1,3.5-0.2,6.4c0,1.1,0.1,1.9,0.2,2.5c0.1,0.6,0.2,1,0.5,1.4c0.1,0.2,0.2,0.3,0.3,0.4c0.1,0,0.2,0,0.3,0
			c0.2,0,0.4-0.1,0.6-0.3c0.2-0.2,0.3-0.4,0.4-0.6c0.1-0.2,0.3-0.4,0.4-0.6c0.1-0.2,0.2-0.6,0.1-0.9c0-0.4,0-1.3,0-2.5
			c0.1-1.6,0.1-3.9,0-6.8c0.5,0.4,1.1,1,1.7,1.6c0.4,0.4,0.8,0.6,1,0.6c0.5-0.1,0.9-0.3,1.1-0.6c0.2-0.3,0.4-0.7,0.3-1
			c0-0.2-0.1-0.4-0.3-0.7C130.5,30.4,129.9,30.1,129.1,29.8L129.1,29.8z M139.2,15.7c-0.4-0.3-0.8-0.4-1.2-0.2c-0.3,0.2-0.6,0.2-1,0
			c-0.3-0.1-0.5-0.1-0.5,0c0,0.6,0.1,1.1,0.2,1.3c0.1,0.4,0.3,0.8,0.5,1.3c0.1,0.2,0.1,0.7,0.1,1.5v19.4c0.1,0.2,0,0.3-0.1,0.4
			c-0.1,0-0.2,0-0.3,0c-0.5-0.1-1.2-0.1-2-0.2c-0.2,0-0.4-0.1-0.6-0.1c-0.3-0.1-0.4-0.1-0.5,0c0,0,0,0.1,0.2,0.3
			c0.1,0.1,0.3,0.3,0.4,0.5c0.2,0.3,0.4,0.6,0.7,0.9c0.2,0.3,0.5,0.6,0.7,0.8c0.2,0.2,0.5,0.4,0.8,0.7c0.2,0.2,0.4,0.4,0.6,0.5
			c0.2,0.1,0.4,0.2,0.7,0.2c0.3,0,0.7-0.2,1-0.5c0.4-0.4,0.7-0.6,1.1-0.8c0.4-0.2,0.6-0.4,0.7-0.7c0.2-0.6,0.3-1,0.3-1.3
			c-0.1-3.4-0.2-6.1-0.3-8.1c-0.1-2.4-0.1-4.3-0.1-5.7c0.1-2.8,0.2-4.5,0.4-5.3c0.1-0.4,0.3-0.9,0.5-1.3c0.3-0.5,0.4-0.9,0.3-1.2
			c-0.1-0.3-0.2-0.6-0.3-0.9c-0.1-0.3-0.5-0.6-0.9-0.9C140.1,16.2,139.6,15.9,139.2,15.7L139.2,15.7z M152.3,28.3
			c0.1,1.7,0.1,3.5,0.1,5.2c0,0.8,0,2.1,0,3.8c0,0.6,0,1.1,0.1,1.5c0.1,0.5,0.3,1,0.5,1.3c0.1,0.1,0.2,0.3,0.3,0.3
			c0.1,0,0.2,0,0.3,0c0.2,0,0.4-0.1,0.6-0.3s0.3-0.4,0.4-0.5c0.1-0.2,0.2-0.4,0.4-0.6c0.1-0.2,0.1-0.6,0-0.9c0-0.3,0-0.7,0-1.4
			c0-0.9,0-2.2,0.1-4c0-1.2,0-2.8,0.1-4.6c0-0.6,0.1-1,0.2-1.3c0.1-0.4,0.1-0.7,0-1c-0.1-0.1-0.2-0.3-0.5-0.4
			c0.3-0.4,0.6-0.9,0.9-1.4c0.4-0.7,0.8-1.4,1.2-2c0.2-0.4,0.4-0.7,0.7-1c0.2-0.3,0.3-0.6,0.3-1.1c0-0.3-0.2-0.6-0.6-0.9
			c-0.3-0.2-0.6-0.4-1.1-0.7c-0.4-0.2-0.9-0.4-1.4-0.5c-0.4-0.1-0.8-0.3-1.1-0.4c-0.3-0.2-0.6-0.3-0.8-0.2c-0.1,0.1-0.2,0.3-0.2,0.7
			c0,0.3,0,0.7,0,1c-0.1,0.4-0.2,0.8-0.3,1.3c-0.2,0.7-0.5,1.4-0.9,2.3c-0.3,0.8-0.7,1.6-1.1,2.4c-0.3,0.6-0.6,1.1-1,1.7
			c-0.4,0.6-0.7,1.1-1,1.6c-0.4,0.8-0.5,1.3-0.3,1.4c0.1,0.1,0.6,0,1.5-0.2c0.4-0.1,0.8-0.2,1.1-0.1C150.8,29.4,151.4,29,152.3,28.3
			L152.3,28.3z M166.7,17.4c-1.1,0.6-2.7,1.1-5.1,1.4c0,0,0,0,0,0c-0.4-0.1-0.9-0.2-1.4-0.5c-0.2-0.1-0.4-0.1-0.5,0.2
			c-0.1,0.2-0.1,0.4,0,0.7c0,0.2,0,0.5,0.1,0.9c0,0.7,0.2,1.9,0.5,3.5c0.3,1.5,0.6,2.5,0.9,3c0.3,0.4,0.5,0.6,0.7,0.3
			c0.1,0,0.1,0,0.2,0.1c0.1,0,0.2,0,0.3,0c0,0.1,0,0.2,0.1,0.4c0.2,0.5,0.4,0.8,0.5,1.1c0.1,0.1,0.1,0.4,0.2,0.7
			c-0.7,0.1-1.5,0.3-2.2,0.5c-1.8,0.4-3.3,0.9-4.3,1.4c-0.3,0.1-0.7,0.2-1,0.2c-0.3,0-0.3,0.2-0.1,0.8c0.2,0.5,0.5,1,0.9,1.4
			c0.3,0.3,0.5,0.4,0.8,0.4c0.6-0.1,1.1-0.2,1.4-0.3c0,0.1,0,0.1,0,0.2c-0.4,1.3-0.7,2.2-0.7,2.5c0,0.3,0,0.5,0.1,0.7
			c0.3,0.4,0.4,0.7,0.5,1c0.1,0.2,0.2,0.3,0.4,0.3c0.1,0,0.3-0.1,0.6-0.2c0.2-0.1,0.4-0.2,0.6-0.4c0.1-0.1,0.3-0.4,0.4-0.6
			c0.1-0.3,0.2-0.5,0.3-0.7c0-0.1,0.1-0.4,0.1-0.7c0.1-0.3,0.1-0.7,0.1-1.1c0-0.3-0.1-0.6-0.2-0.7c-0.2-0.3-0.4-0.6-0.7-0.8
			c1-0.4,2-0.7,3.1-1c0,1,0,1.8,0,2.3c0,1.5,0,2.9,0.1,4c0,0.4-0.2,0.7-0.5,0.7c-0.3,0-0.6,0-0.8,0c-0.4,0-0.8,0-1.1,0
			c-0.2,0-0.2,0.2,0.1,0.4c0.3,0.3,0.6,0.5,1,0.8c0.3,0.2,0.6,0.5,1,0.8c0.2,0.2,0.4,0.4,0.6,0.6c0.2,0.2,0.3,0.3,0.4,0.4
			c0.1,0.1,0.3,0.2,0.5,0.1c0.3-0.1,0.6-0.3,0.9-0.6c0.4-0.5,0.7-0.9,0.9-1.3c0.3-0.5,0.5-1,0.6-1.4c0.1-0.3,0-1.5-0.1-3.6
			c-0.1-1.2-0.1-2.6,0-4.2c0.9-0.2,1.9-0.3,2.9-0.4c1.2-0.1,2.3-0.1,3.3,0.1c0.4,0.1,0.8,0.1,1,0.1c0.2,0,0.4-0.2,0.7-0.6
			c0.2-0.3,0.4-0.7,0.3-1c0-0.2-0.1-0.4-0.4-0.6c-0.4-0.3-1.1-0.8-2.1-1.3c-0.2-0.1-0.4-0.1-0.7,0c-0.1,0.1-0.3,0.2-0.6,0.2
			c-0.1,0.1-0.3,0.1-0.4,0.1c-0.2,0-0.4,0.1-0.6,0.1c-0.4,0-1.4,0.2-3,0.5c-0.1-0.1-0.2-0.3-0.3-0.5c-0.4-0.4-0.9-0.8-1.6-1.2
			c-0.1-0.1-0.3-0.2-0.5-0.3c0.8-0.2,1.8-0.5,3-1c0.4-0.1,0.6-0.2,0.7-0.3c0.1-0.1,0.2-0.2,0.3-0.3c0.1-0.1,0.2-0.3,0.2-0.4
			c0-0.1,0-0.2,0.1-0.3c0-0.1,0-0.2,0-0.3c0-0.1,0-0.2-0.1-0.4c0-0.1-0.1-0.1-0.1-0.2c0.6-1.2,1-2,1.3-2.5c0.2-0.4,0.4-0.9,0.6-1.4
			c0.1-0.8-0.7-1.6-2.6-2.5C167.8,16.9,167.3,17,166.7,17.4L166.7,17.4z M163.8,21.6c0-0.1,0-0.1,0-0.1c0.8-0.3,1.5-0.6,2.2-0.8
			c0.3-0.1,0.5-0.1,0.7,0.1c0,0.1,0,0.4-0.2,0.7c-0.3,0.6-0.7,1.4-1.2,2.2c-0.6,0.1-1.1,0.3-1.5,0.4
			C163.7,23.4,163.7,22.6,163.8,21.6L163.8,21.6z M169.4,33.3c0.3,1.7,0.8,3.3,1.3,4.7c0.3,0.8,0.6,1.1,0.9,1.1
			c0.3,0,0.6-0.1,0.8-0.4c0.3-0.3,0.6-0.7,0.9-1c0.2-0.3,0.3-0.7,0.3-1.2c-0.1-0.6-0.5-1.4-1.3-2.2c-0.6-0.5-1.1-1-1.7-1.2
			c-0.6-0.3-1-0.5-1.2-0.4C169.3,32.6,169.3,32.8,169.4,33.3L169.4,33.3z"/>
		<path class="st10" d="M191.4,15.8c-0.6,1.5-1.3,3.2-2.3,5c-1.1,2-2,3.4-2.7,4.4c-0.1,0.1-0.2,0.2-0.3,0.2c-0.1,0-0.2,0-0.2,0.1
			c0,0.1-0.1,0.2-0.1,0.3c-0.1,0.1-0.1,0.2-0.2,0.4c0,0.1,0.1,0.2,0.2,0.2c0.2,0,0.4,0,0.6,0c0.2,0,0.4-0.1,0.6-0.2
			c0.2-0.1,0.6-0.4,1.1-0.7c0.3-0.2,0.6-0.4,0.9-0.7c0,0,0,0,0.1,0c0.2,0.1,0.5,0.3,0.6,0.6c0.1,0.2,0.4,0.5,0.9,0.7
			c0.3,0.2,0.6,0.3,0.8,0.3c0.2,0,0.4,0,0.8-0.1c0.8-0.1,1.6-0.4,2.4-0.6c0.5-0.2,0.8-0.4,0.8-0.5c0-0.1,0.1-0.3,0.3-0.6
			c0.3-0.4,0.4-0.8,0.3-0.9c-0.1-0.1-0.2-0.3-0.6-0.6c-0.3-0.2-0.7-0.4-1-0.5c-0.2-0.1-0.5-0.1-0.9-0.2c-0.1,0-0.3,0-0.6,0.2
			c-1,0.5-1.8,0.9-2.5,1.2c-0.1,0-0.3,0.1-0.4,0.1c0.1-0.1,0.2-0.2,0.3-0.3c0.8-0.9,1.5-1.8,2.1-2.8c0.3-0.5,0.8-1.1,1.4-1.8
			c0.2,0.1,0.4,0.3,0.6,0.6c0.3,0.3,1,1.3,2.2,3c0.9,1.4,2.1,2.8,3.4,4.1c0.2,0.2,0.5,0.4,0.7,0.5c0.2,0.1,0.4,0.1,0.7,0
			c0.3-0.1,0.6-0.1,0.9-0.1c0.3,0,0.8-0.1,1.4-0.1c0.3,0,0.7-0.2,1.2-0.5c0.4-0.2,0.8-0.5,1.3-0.8c0.2-0.1,0.2-0.3,0-0.6
			c-0.5-0.5-1.2-0.9-2.1-1.2c-2.3-1.1-4-2.1-4.9-3c-0.8-0.8-1.9-1.8-3.3-3c-0.3-0.2-0.5-0.4-0.8-0.6c0-0.1,0-0.3,0.1-0.4
			c0-0.3-0.2-0.6-0.4-0.8c-0.5-0.5-1.2-0.9-1.9-1c-0.6-0.1-0.9-0.1-0.9,0c0,0.1-0.1,0.2-0.2,0.3c-0.1,0-0.1,0.1,0,0.3
			C191.5,15.4,191.5,15.6,191.4,15.8L191.4,15.8z M195.7,36.9c1,1.5,2.1,2.9,3.3,4.2c0.5,0.5,0.9,0.8,1.1,0.7
			c0.2-0.1,0.4-0.3,0.6-0.6c0.2-0.4,0.3-0.8,0.4-1.1c0.1-0.3,0.1-0.7-0.1-1.1c-0.3-0.8-1.1-1.6-2.4-2.4c-0.7-0.4-1.5-0.7-2.2-0.9
			c0.1-0.1,0.2-0.2,0.2-0.3c0.2-0.3,0.3-0.5,0.3-0.7c-0.1-0.3-0.1-0.5-0.2-0.7c-0.1-0.2-0.3-0.4-0.6-0.6c-0.1-0.1-0.1-0.1-0.2-0.2
			c0.1,0,0.2,0,0.4-0.1c0.5-0.1,1.1-0.3,1.8-0.6c0.2-0.1,0.4-0.2,0.5-0.2c0.1-0.1,0.1-0.1,0.2-0.2c0.1-0.1,0.1-0.2,0.2-0.3
			c0-0.1,0-0.1,0.1-0.2c0-0.1,0-0.1,0-0.2c0-0.1,0-0.2-0.1-0.3c0.4-0.6,0.7-1.3,1-2c0.2-0.5,0.3-0.9,0.3-1.2c0-0.2-0.1-0.4-0.3-0.6
			c-0.3-0.2-0.7-0.4-1.4-0.7c-0.6-0.2-1-0.3-1.2-0.1c-0.1,0.1-0.4,0.2-0.7,0.4c-0.5,0.1-1.1,0.4-1.7,0.7c-0.1-0.1-0.3-0.1-0.5-0.1
			c-0.3,0-0.7-0.1-1-0.3c-0.1-0.1-0.2,0-0.3,0.2c0,0.1,0,0.2,0,0.4c-0.3-0.1-0.6-0.3-1.1-0.4c-0.6-0.2-1-0.2-1.2,0
			c-0.1,0.1-0.4,0.3-0.7,0.4c-0.6,0.2-1.3,0.6-2.1,1.1c0,0,0,0-0.1,0c0,0-0.1,0-0.1,0c-0.3,0-0.6-0.1-0.9-0.2c0-0.1-0.1-0.3-0.2-0.4
			c-0.9-1.2-1.6-2.1-2.1-2.9c-0.1-0.3-0.2-0.7-0.2-1c-0.1-0.4,0-1,0.3-1.8c0.4-1,0.9-2.1,1.7-3.1c0.5-0.6,0.8-1.1,0.9-1.3
			c0.1-0.3,0.1-0.7,0-1c-0.1-0.4-0.3-0.7-0.4-0.8c-0.2,0-0.4-0.1-0.7-0.1c-0.4,0-1-0.1-1.6-0.1c-0.3-0.1-0.5-0.1-0.7-0.1
			c-0.1,0-0.2,0.1-0.3,0.3c-0.1,0.3-0.2,0.5-0.3,0.6c-0.2,0.2-0.5,0.4-0.9,0.7c-0.4,0.3-0.9,0.5-1.3,0.7c-0.4,0.1-0.8,0.2-1,0.1
			c-0.1,0-0.2,0-0.2,0c-0.1,0.1-0.1,0.3,0.1,0.7c0.1,0.4,0.4,0.6,0.7,0.8c0.1,0.1,0.4,0.2,0.8,0.4c0.4,0.1,0.8,0.2,1.2,0.2
			c0.1,0,0.2,0,0.2,0c0,0,0,0.1,0,0.3c-0.5,1-0.6,2.3-0.3,3.9c0.1,0.2,0.3,0.5,0.4,0.7c0.3,0.7,0.6,1.3,0.9,1.6
			c0.1,0.1,0.1,0.2,0.1,0.2c0,0.1-0.1,0.1-0.2,0.1c-0.2,0-0.6,0.1-0.9,0.2c-0.2,0.1-0.4,0.1-0.7,0.2c0-0.3,0-0.5,0-0.7
			c0-1.1,0-1.8-0.2-2.3c-0.1-0.3-0.2-0.6-0.4-0.7c-0.4-0.3-0.9-0.4-1.4-0.6c-0.3,0-0.4,0.2-0.4,0.6c-0.1,1.5-0.1,3.3,0,5.2
			c0.1,2,0.1,5.2-0.1,9.5c0,0.2,0,0.5-0.1,0.7c-0.1,0.3,0,0.5,0.2,0.8c0.2,0.3,0.5,0.6,0.8,1c0.1,0.2,0.3,0.4,0.6,0.3
			c0.3-0.1,0.6-0.2,0.8-0.5c0.1-0.2,0.3-0.4,0.4-0.6c0.1-0.2,0.1-0.5,0.2-0.9c0.1-2.6,0.1-5.2,0-7.6c-0.1-1.5-0.1-2.8-0.2-3.7
			c0.3,0.1,0.6,0.1,0.9,0.2c0.4,0.1,0.6,0.2,0.6,0.2c0,0,0.2,0.1,0.4,0.2c0.1,0.1,0.3,0.2,0.4,0.4c0.2,0.2,0.4,0.4,0.6,0.5
			c0.2,0.1,0.4,0.1,0.5,0c0.2-0.1,0.6-0.3,0.9-0.4c0.1-0.1,0.3-0.1,0.3-0.2c0,0.1,0,0.2,0.1,0.3c0,0.6,0.2,1.5,0.6,2.7
			c0.3,1.1,0.5,1.9,0.9,2.2c-0.1,0.6-0.3,1.1-0.6,1.6c-0.3,0.7-0.6,1.3-0.9,1.7c-0.2,0.4-0.5,0.7-0.7,1c-0.3,0.3-0.5,0.4-0.7,0.5
			c-0.1,0.1-0.2,0.1-0.2,0.2c0,0.1,0.1,0.1,0.2,0.1c0.2,0,0.4,0,0.5,0c0.2,0,0.4,0,0.5-0.1c0.4-0.1,0.6-0.2,0.7-0.2
			c0.2-0.1,0.4-0.3,0.6-0.4c0.2-0.2,0.5-0.5,0.9-0.9c0.3-0.4,0.6-0.8,0.9-1.3c0.4,0.4,0.8,0.9,1.2,1.3c0.4,0.3,0.7,0.4,0.9,0.4
			c0.1-0.1,0.3-0.2,0.3-0.5c0.1-0.3,0.1-0.6,0.2-0.9c0-0.3,0-0.5-0.2-0.8c-0.2-0.3-0.6-0.5-1.3-0.7c-0.1,0-0.2,0-0.3,0
			c0.2-0.2,0.3-0.4,0.2-0.6c0-0.2-0.1-0.4-0.2-0.6c-0.1-0.2-0.3-0.4-0.5-0.5c0,0,0,0,0,0c0.1,0,0.3-0.1,0.8-0.3
			c0.3-0.1,0.7-0.4,1.2-0.7c0.3-0.1,0.4-0.3,0.5-0.4c0.1-0.1,0.1-0.2,0.2-0.3c0-0.1,0.1-0.3,0.1-0.4c0-0.1,0-0.2,0-0.2
			c0-0.1,0-0.1,0-0.2c0.2-0.5,0.4-1.1,0.6-1.6c0.1,0.3,0.1,0.7,0.2,1c0.2,0.9,0.4,1.6,0.6,2c0,0,0,0.1,0,0.1c0,0.1,0,0.4-0.1,0.7
			c-0.1,0.8-0.4,1.6-0.7,2.3c-0.4,0.9-0.7,1.6-1.1,2.2c-0.3,0.5-0.6,0.9-0.9,1.2c-0.3,0.3-0.6,0.5-0.8,0.6c-0.1,0.1-0.2,0.2-0.2,0.3
			c0,0.1,0.1,0.1,0.3,0.2c0.2,0,0.4,0,0.6,0c0.2,0,0.5-0.1,0.6-0.1c0.4-0.1,0.7-0.3,0.9-0.3c0.3-0.2,0.5-0.4,0.8-0.6
			c0.3-0.2,0.7-0.6,1-1.2C194.9,38.1,195.3,37.6,195.7,36.9L195.7,36.9z M190.6,31.1c0,0.1-0.1,0.2-0.2,0.4
			c-0.5,0.2-0.9,0.4-1.2,0.6c0-0.4-0.1-0.8-0.1-1.3c0-0.2-0.1-0.4-0.1-0.6c0.1-0.1,0.3-0.3,0.6-0.4c0.3-0.2,0.7-0.4,1-0.6
			c0.1-0.1,0.2-0.1,0.2,0c0,0,0,0.1,0.1,0.4C190.8,30.1,190.7,30.6,190.6,31.1L190.6,31.1z M195.7,31.3c-0.1-0.5-0.1-1.1-0.1-1.9
			c0-0.1,0-0.2,0-0.2c0.1-0.1,0.2-0.2,0.4-0.3c0.3-0.2,0.7-0.4,1.1-0.5c0.1-0.1,0.1-0.1,0.2,0c0,0.1,0,0.2,0,0.4
			c-0.1,0.5-0.3,1-0.5,1.5c-0.1,0.2-0.2,0.5-0.5,0.9C196,31.1,195.8,31.2,195.7,31.3L195.7,31.3z M214.5,15.9
			c-1.9,3.1-3.4,6-4.5,8.6c-0.3,0.6-0.5,1.1-0.8,1.3c-0.3,0.4-0.5,0.7-0.4,0.9c0.6,1.2,1.1,1.9,1.6,2.3c0.4,0.3,0.8,0.3,1.2,0.1
			c0.4-0.2,0.8-0.3,1.2-0.3c-0.4,0.9-0.9,1.9-1.3,2.8c-0.1,0.2-0.2,0.4-0.5,0.7c-0.3,0.3-0.3,0.5-0.1,0.6c0.1,0.1,0.2,0.2,0.3,0.5
			c0.1,0.4,0.2,0.7,0.5,1c0.5,0.6,1.2,0.5,2-0.3c0.5-0.4,1.5-1.1,2.9-2c0.2-0.1,0.4-0.3,0.6-0.5c0,0,0,0.1,0.1,0.1
			c0.1,0.2,0.3,0.3,0.5,0.4c0.2,0,0.4-0.1,0.6-0.3c0.3-0.3,0.4-0.7,0.5-1.1c0.1-0.6-0.1-1.1-0.5-1.6c-0.4-0.4-0.9-0.8-1.5-0.9
			c-0.2,0-0.3-0.1-0.4-0.1c-0.1,0-0.1,0-0.2,0c0,0,0,0.2,0,0.5c0.1,0.6,0.2,1.1,0.2,1.5c-0.4,0.2-0.9,0.4-1.3,0.6
			c-0.5,0.2-0.8,0.3-0.8,0.2c-0.1-0.1,0.1-0.5,0.6-1.3c1.3-2.3,2.5-4,3.6-5.2c0.2-0.2,0.3-0.4,0.3-0.6c0-0.4-0.2-0.7-0.5-1.1
			c-0.4-0.5-0.9-0.8-1.4-1c-0.2-0.1-0.3,0-0.4,0.2c0,0.1-0.1,0.3-0.2,0.5c-0.7,1.2-1.4,2.3-2.1,3.4c-0.7,0-1-0.1-1.1-0.3
			c-0.1-0.1-0.1-0.3,0.1-0.6c0.6-1.2,1.3-2.4,2.3-3.6c1-1.2,1.6-2.1,1.8-2.7c0.1-0.4,0.1-0.9-0.2-1.5c-0.2-0.4-0.5-0.7-0.8-0.9
			c-0.3-0.1-0.6-0.2-0.7-0.5c-0.1-0.1-0.3-0.3-0.7-0.5C214.8,15.6,214.7,15.7,214.5,15.9L214.5,15.9z M210.3,37.4
			c0.6,1.3,1.3,2.4,2.1,3.4c0.3,0.4,0.6,0.6,0.8,0.6c0.2-0.1,0.3-0.2,0.4-0.4c0.2-0.3,0.3-0.5,0.4-0.8c0.1-0.3,0.1-0.5,0-0.8
			c-0.1-0.5-0.6-1-1.4-1.6c-0.5-0.4-1-0.6-1.6-0.7c-0.4-0.1-0.7-0.2-0.8-0.1C210.1,37,210.1,37.2,210.3,37.4L210.3,37.4z
			 M213.5,35.2c0.4,1.1,1,2.1,1.6,2.9c0.3,0.4,0.5,0.6,0.7,0.5c0.1,0,0.3-0.1,0.4-0.3c0.1-0.2,0.3-0.5,0.4-0.7
			c0.1-0.2,0.1-0.5,0.1-0.8c-0.1-0.4-0.5-0.8-1.1-1.3c-0.4-0.3-0.9-0.5-1.3-0.6c-0.4-0.1-0.6-0.2-0.7-0.1
			C213.3,34.8,213.4,35,213.5,35.2L213.5,35.2z M215.8,33.5c0.1,0.1,0.3,0.4,0.5,0.7c0.3,0.4,0.7,0.9,1.2,1.5
			c0.2,0.2,0.4,0.3,0.6,0.5c0.1,0.1,0.2,0.1,0.3,0.1c0.1,0,0.2-0.1,0.2-0.1c0.1-0.1,0.2-0.2,0.2-0.3c0.1-0.1,0.2-0.2,0.2-0.4
			c0-0.1,0.1-0.3,0.1-0.6c0-0.2,0-0.4-0.1-0.6c0-0.1-0.2-0.4-0.7-0.6c-0.5-0.3-1-0.5-1.4-0.6c-0.2,0-0.4-0.1-0.6-0.1
			c-0.1,0-0.3,0-0.4,0c-0.2,0-0.4,0-0.5,0c-0.1,0-0.1,0-0.2,0.1C215.4,33.1,215.5,33.3,215.8,33.5L215.8,33.5z M220.1,22.3
			c-0.2,0-0.3,0-0.4,0.2c0,0.1,0,0.3,0,0.5c0.1,0.3,0.2,0.6,0.4,0.9c0.4,0.8,0.7,1.4,0.9,1.9c0.1,0.3-0.1,0.9-0.7,1.7
			c-0.1,0.3-0.2,0.5-0.2,0.7c0,0.4,0.2,0.9,0.6,1.4c0.3,0.4,0.6,0.8,0.9,1.1c0.3,0.3,0.8,0.6,1.5,0.9c0.1,0.1,0.2,0,0.3-0.1
			c0.3-0.4,0.5-0.7,0.5-1.1c0-0.4-0.1-0.8-0.4-1.2c-0.3-0.4-1-1-2-1.7c-0.1-0.1-0.1-0.1,0-0.2c1.2-1,1.8-1.7,2-2
			c0.1-0.4,0.1-0.7,0.1-0.9c-0.1-0.2-0.3-0.5-0.6-0.9c-0.3-0.3-0.8-0.6-1.5-0.9C221,22.4,220.5,22.3,220.1,22.3L220.1,22.3z
			 M226.3,16.4c-0.8,0.3-1.5,0.6-2.2,0.8c-0.7,0.2-1.1,0.3-1.3,0.3c-0.5-0.1-0.8,0-1,0.1c-0.1,0.1,0,0.5,0.3,1.2
			c0.4,0.6,0.8,1.1,1.3,1.4c0.4,0.3,0.8,0.5,1.2,0.6c-0.2,0.1-0.3,0.3-0.1,0.6c0.4,0.6,0.7,1,0.7,1.2c-0.1,0.4-0.1,0.7-0.2,0.9
			c-0.3,0.9-0.6,1.6-0.8,2.3c-0.1,0.3-0.1,0.7-0.1,1.2c0.1,0.7,0.6,1.7,1.5,2.8c0.2,0.3,0.4,0.5,0.5,0.5c0.3,0,0.5,0,0.8-0.1
			c0.4-0.2,0.6-0.5,0.7-0.8c0.1-0.4,0.1-0.7-0.1-0.9c-0.1-0.1-0.7-0.6-1.8-1.5c-0.2-0.1-0.3-0.3-0.3-0.3c0-0.1,0-0.2,0-0.3
			c0.1-0.3,0.4-0.7,1-1c0.8-0.5,1.3-1.2,1.6-2c0.1-0.7-0.1-1.2-0.5-1.7c-0.4-0.4-0.9-0.7-1.5-0.9c0.5-0.1,1.1-0.3,1.7-0.5
			c0.7-0.2,1.4-0.5,2.1-0.9c0.2-0.1,0.5-0.5,0.8-1c0.2-0.4,0.2-0.7,0.1-1c-0.1-0.2-0.3-0.5-0.6-0.7c-0.4-0.2-0.7-0.5-1.1-0.7
			c-0.1-0.1-0.3-0.2-0.6-0.3c-0.2-0.1-0.4-0.2-0.6-0.2c-0.3,0-0.5,0.1-0.7,0.5C226.9,16,226.6,16.2,226.3,16.4L226.3,16.4z
			 M229.1,20c-0.3,0-0.5,0.1-0.6,0.1c-0.1,0.1-0.2,0.3-0.1,0.4c0.3,0.4,0.7,0.7,1.3,1.1c0.1,0.1,0.1,0.4,0,0.8
			c-0.2,0.7-0.5,1.3-0.8,1.9c-0.2,0.4-0.4,0.7-0.4,0.9c0,0.2,0,0.4,0.1,0.7c0.2,0.6,0.5,1.1,0.9,1.5c0,0,0-0.1,0-0.1
			c-0.3,0.2-0.7,0.5-1.2,0.7c-0.1,0-0.1,0.1-0.2,0.2c0,0.1,0.1,0.1,0.2,0.1c0.4,0,0.8,0,1.3,0c0.2,0,0.4,0.1,0.5,0.2
			c0.4,0.4,0.8,0.7,1.1,0.8c0.3,0,0.6-0.1,1-0.5c0.3-0.3,0.5-0.6,0.6-0.9c0-0.4-0.3-0.8-0.7-1.2c-0.6-0.5-1.4-0.9-2.2-1.3
			c-0.1,0-0.2-0.1-0.3-0.2c0-0.1,0-0.2,0.2-0.4c0.7-0.4,1.3-0.9,2-1.5c0.4-0.3,0.6-0.7,0.8-1.1c0.1-0.4,0.1-0.8-0.1-1.2
			c-0.1-0.4-0.6-0.7-1.6-1.1C230.3,20,229.7,19.9,229.1,20L229.1,20z M226.2,31c-0.9,0.4-1.7,0.7-2.6,1c-0.7,0.2-1.2,0.3-1.6,0.2
			c-0.2,0-0.3,0-0.4-0.1c-0.1,0-0.2,0.1-0.3,0.2c-0.1,0.1-0.1,0.2-0.1,0.3c0,0.1,0,0.3,0,0.3c0,0.1,0,0.3,0,0.4
			c0.1,0.1,0.2,0.3,0.3,0.5c0.1,0.1,0.2,0.3,0.4,0.5c0.4,0.4,0.7,0.7,0.9,0.9c0.2,0.2,0.5,0.3,0.8,0.3c0.1,0,0.3,0,0.6-0.1
			c0,0.2,0,0.4,0,0.6c0,0.4-0.1,1-0.2,1.7c0,0.2-0.1,0.5-0.2,0.8c-1.6,0.1-2.8,0.3-3.6,0.5c-0.4,0.1-0.8,0.1-1,0
			c-0.2-0.1-0.4,0-0.6,0.1c-0.1,0.1,0,0.5,0.2,1.2c0.2,0.7,0.6,1.3,1,1.7c0.3,0.3,0.8,0.4,1.5,0.3c0.9-0.2,2.3-0.4,4.2-0.6
			c1.7-0.1,3.2-0.2,4.5-0.2c0.9,0,1.8,0.1,2.5,0.3c0.5,0.1,0.8,0.1,1,0c0.1-0.1,0.2-0.3,0.3-0.5c0.1-0.2,0.2-0.4,0.3-0.6
			c0.1-0.2,0.2-0.4,0.3-0.6c0.1-0.3,0-0.6-0.2-0.9c-0.1-0.1-0.3-0.3-0.6-0.5c-0.2-0.1-0.5-0.3-0.8-0.5c-0.2-0.1-0.4-0.2-0.7-0.5
			c-0.1-0.1-0.3-0.2-0.6-0.1c-0.1,0-0.3,0.1-0.5,0.1c-0.3,0.2-0.6,0.3-0.9,0.4c-0.3,0.1-0.9,0.1-1.8,0.1c-0.4,0-0.7,0-1.1,0
			c0.1-0.4,0.2-0.8,0.3-1.2c0.1-0.5,0.2-0.9,0.3-1.2c0.2-0.5,0.3-0.9,0.3-1.1c0-0.2-0.1-0.5-0.3-0.7c0.6-0.2,1.2-0.4,1.9-0.5
			c0.3-0.1,0.6-0.3,0.8-0.4c0.1-0.1,0.3-0.3,0.3-0.5c0.1-0.3,0.2-0.7,0.3-1.1c0.1-0.2,0-0.4-0.2-0.6c-0.4-0.3-0.7-0.5-1.1-0.5
			c-0.4,0-0.7-0.1-1-0.2c-0.2-0.1-0.4-0.1-0.7-0.2c-0.1,0-0.3,0-0.4,0c-0.1,0-0.3,0.1-0.3,0.3C227.3,30.5,226.9,30.7,226.2,31
			L226.2,31z"/>
		<path class="st10" d="M244.8,17.1c-1.9,3.1-3.4,6-4.5,8.6c-0.2,0.6-0.5,1.1-0.8,1.3c-0.3,0.5-0.4,0.8-0.3,0.9c0.8,1.1,1.4,1.7,2,2
			c0.4,0.2,0.8,0.2,1.2-0.2c0.4-0.3,0.8-0.5,1.2-0.6c-0.5,1.1-1,2.1-1.5,3.2c-0.1,0.2-0.2,0.4-0.5,0.7c-0.2,0.3-0.3,0.5-0.1,0.6
			c0.1,0.1,0.2,0.2,0.3,0.5c0.1,0.4,0.2,0.7,0.5,1c0.5,0.6,1.2,0.5,1.9-0.3c0.4-0.4,1.3-1.1,2.5-2c0.3-0.2,0.5-0.4,0.7-0.7
			c0,0.1,0.1,0.1,0.2,0.2c0.1,0.2,0.2,0.3,0.4,0.3c0.2,0,0.4-0.1,0.6-0.3c0.2-0.3,0.4-0.7,0.5-1.1c0.1-0.5-0.1-1-0.5-1.5
			c-0.4-0.4-0.9-0.7-1.5-0.9c-0.2,0-0.3-0.1-0.3-0.1c0,0-0.1,0-0.1,0c0,0,0,0.2,0,0.4c0.1,0.5,0.2,1,0.2,1.4
			c-0.4,0.2-0.9,0.5-1.4,0.7c-0.4,0.2-0.7,0.3-0.7,0.2c-0.1-0.1,0.1-0.5,0.6-1.4c1.3-2.3,2.5-4.1,3.6-5.3c0.2-0.2,0.3-0.4,0.3-0.5
			c0-0.4-0.2-0.7-0.5-1.1c-0.4-0.5-0.8-0.8-1.3-1c-0.2,0-0.3,0.1-0.4,0.2c-0.1,0.1-0.2,0.3-0.3,0.6c-0.6,0.9-1.2,1.8-1.7,2.7
			c-1.2,0.6-1.9,0.8-2.2,0.6c-0.1-0.1,0-0.3,0.1-0.6c0.6-1.2,1.3-2.4,2.3-3.6c1-1.2,1.6-2.1,1.8-2.7c0.1-0.4,0.1-0.8-0.2-1.3
			c-0.2-0.4-0.4-0.7-0.7-0.8c-0.3-0.1-0.5-0.2-0.6-0.4c-0.1-0.1-0.3-0.3-0.7-0.4C245.1,16.9,245,16.9,244.8,17.1L244.8,17.1z
			 M240.7,37.4c0.4,1.3,1,2.4,1.6,3.4c0.3,0.6,0.6,0.8,0.9,0.8c0.2-0.1,0.4-0.2,0.6-0.4c0.2-0.3,0.4-0.6,0.5-0.9
			c0.1-0.3,0.2-0.7,0.1-1c-0.1-0.5-0.6-1-1.3-1.5c-0.5-0.3-1-0.5-1.5-0.6c-0.6-0.2-0.9-0.2-1-0.2C240.5,36.9,240.5,37.1,240.7,37.4
			L240.7,37.4z M246.9,34.2c0.4,0.7,0.9,1.3,1.4,1.8c0.3,0.3,0.5,0.4,0.6,0.4c0.1-0.1,0.2-0.2,0.3-0.3c0.1-0.2,0.2-0.4,0.2-0.6
			c0-0.2,0-0.4-0.1-0.6c-0.1-0.3-0.5-0.5-1-0.7c-0.3-0.1-0.7-0.2-1-0.2c-0.4,0-0.6,0-0.6,0C246.7,33.9,246.8,34,246.9,34.2
			L246.9,34.2z M244.2,36c0.4,0.8,0.9,1.5,1.4,2.1c0.3,0.3,0.5,0.5,0.6,0.4c0.1-0.1,0.3-0.2,0.3-0.3c0.1-0.2,0.2-0.4,0.2-0.6
			c0-0.2,0-0.4,0-0.7c-0.1-0.3-0.5-0.6-1-0.9c-0.3-0.2-0.7-0.3-1-0.3c-0.4-0.1-0.6-0.1-0.6,0C244,35.7,244.1,35.8,244.2,36L244.2,36
			z M250.6,30.1c-0.3,3.4-0.3,5.7-0.1,6.9c0.1,0.9,0.5,1.8,1,2.6c0.6,0.8,1.3,1.5,2.2,2c0.5,0.3,1.9,0.4,4.1,0.4
			c1.8,0,3.8-0.1,5.8-0.2c1-0.1,1.8-0.5,2.3-1.2c0.6-0.7,0.8-1.5,0.7-2.4c-0.1-0.6-0.1-1.2-0.2-1.6c-0.1-0.5-0.2-1.1-0.4-1.5
			c-0.2-0.5-0.3-0.9-0.4-1.3c-0.1-0.5-0.2-0.8-0.5-0.7c-0.1,0-0.2,0.3-0.2,0.7c-0.1,0.6-0.3,1.2-0.5,1.8c-0.3,0.8-0.7,1.4-1.3,1.9
			c-0.6,0.4-1.5,0.7-2.7,0.9c-1.8,0.3-3.6,0.4-5.1,0.4c-0.4,0-0.8-0.1-1-0.2c-0.3-0.1-0.4-0.4-0.5-0.7c-0.1-0.7-0.2-1.7-0.2-3
			c0-1.2,0.1-2.3,0.3-3.4c0,0,0,0,0.1,0c0.2-0.1,0.7-0.3,1.3-0.6c0.6-0.3,1.3-0.8,2.1-1.4c0.4-0.3,0.6-0.5,0.7-0.6
			c0.1-0.1,0.2-0.3,0.2-0.5c0.1-0.2,0.1-0.4,0.1-0.6c0-0.1,0-0.2,0-0.3c0.2-0.4,0.4-0.8,0.5-1.2c0.2-0.9,0.6-1.8,1.1-2.8
			c0.1-0.2,0.2-0.5,0.5-0.9c0.2-0.3,0.3-0.7,0.2-1.2c-0.1-0.4-0.3-0.7-0.5-1.1c-0.2-0.3-0.5-0.5-0.8-0.7c-0.3-0.2-0.8-0.5-1.4-0.8
			c-0.8-0.4-1.3-0.6-1.7-0.5c-0.4,0.1-0.7,0.3-0.9,0.7c-0.2,0.3-0.9,0.7-2.2,1.3c-0.4,0.2-0.9,0.4-1.5,0.6c-0.5,0.1-0.8,0.2-0.8,0.5
			c0,0.3,0.1,0.5,0.2,0.8c0.3,0.4,0.6,0.9,0.9,1.2c0.3,0.4,0.7,0.7,1.1,0.9c0.6,0.2,1.4-0.1,2.3-0.9c0,0,0.1,0,0.1,0
			c0.1,0.1,0.1,0.2,0.1,0.2c-0.2,0.9-0.4,2-0.7,3.3c-1.1,0.6-2,1.1-2.8,1.6c-0.4-0.1-0.8-0.2-1-0.3c-0.4-0.2-0.6-0.2-0.8-0.2
			c-0.1,0.1-0.2,0.2-0.2,0.4c0,0.1,0,0.3,0.1,0.6C250.6,29.2,250.6,29.6,250.6,30.1L250.6,30.1z M289.8,32.9
			c-1.6-1.4-3.1-2.9-4.5-4.5c-1.2-1.3-1.9-2.1-2.3-2.4c-0.4-0.4-0.9-0.7-1.5-0.9c0.2-0.4,0.4-0.7,0.5-0.9c0.2-0.4,0.4-0.7,0.6-1
			c0.6-0.9,0.8-1.6,0.6-2.1c-0.3-0.8-0.9-1.5-1.9-2.3c-0.6-0.5-1-0.7-1.2-0.5c-0.2,0.1-0.4,0.1-0.7-0.1c-0.2-0.2-0.4-0.3-0.5-0.2
			c-0.1,0.1-0.2,0.2-0.2,0.4c0,0.2-0.1,0.5-0.2,1c0.1,0.3,0.1,0.6-0.1,1.1c-0.1,0.5-0.3,1-0.5,1.6c-0.4,1.1-0.8,2.3-1.3,3.5
			c-0.4,1-0.8,2-1.3,3c-0.6,1.3-1.3,2.6-2.3,4.1c-0.9,1.4-1.8,2.5-2.7,3.2c-0.6,0.5-1.2,1-1.7,1.3c-0.7,0.3-0.9,0.5-0.8,0.7
			c0.1,0.1,0.4,0.2,1,0.2c0.6,0,1.4-0.1,2.4-0.3c1.1-0.3,2.1-0.9,3.1-1.9c1-1,1.9-2,2.7-3.1c1-1.4,1.9-2.8,2.7-4.4
			c0.1-0.2,0.2-0.4,0.3-0.6c0.1,0.1,0.2,0.2,0.4,0.3c0.2,0.2,0.6,0.5,1,0.9c0.5,0.4,1.2,1.2,2,2.2c0.6,0.8,1.3,1.7,2,2.7
			c0.4,0.6,1,1.4,1.6,2.3c0.8,1.1,1.5,1.9,2.3,2.5c0.5,0.4,0.9,0.6,1.2,0.7c0.2,0,0.5,0,0.9,0c0.4-0.1,0.8-0.1,1.3-0.2
			c0.3-0.1,0.7-0.1,1-0.1c0.4,0,0.8-0.1,1.3-0.2c0.4-0.1,0.7-0.2,1-0.3c0.4-0.1,0.6-0.3,0.7-0.4c0.1-0.2,0.1-0.4-0.2-0.7
			c-0.3-0.3-0.7-0.5-1-0.8c-0.3-0.1-0.9-0.5-2-1.2C292.5,35.1,291.2,34.1,289.8,32.9L289.8,32.9z M311.9,18.6
			c-0.1,0.8-0.2,2.2-0.3,4.2c0,1.8,0.1,3,0.3,3.7c0.1,0.4,0.3,0.6,0.6,0.4c0.1-0.1,0.3-0.2,0.6-0.3c0.4-0.1,0.6-0.2,0.8-0.3
			c0.2,0,0.3-0.2,0.4-0.5c0.1-0.3,0.2-0.8,0.2-1.4c0.1-0.8,0.3-1.9,0.6-3.3c0-0.2,0-0.4,0.1-0.5c0.4-0.3,1.2-0.6,2.1-1
			c0.1-0.1,0.2-0.1,0.3,0c0,0,0,0.1,0,0.2c-0.2,0.9-0.5,1.8-0.8,2.9c-0.1,0.5,0,1,0.4,1.6c0.3,0.5,0.6,0.9,0.9,1
			c0.3,0.2,0.5,0.2,0.7,0.1c2.1-0.9,3.3-1.6,3.7-2c0.2-0.3,0.3-0.6,0.4-0.9c0-0.2,0-0.4-0.1-0.5c-0.1-0.1-0.1-0.1-0.2-0.1
			c-0.1,0-0.2-0.1-0.4-0.2c-0.3-0.2-0.5-0.3-0.7-0.2c-0.1,0.1-0.3,0.1-0.5,0.2c-0.2,0-0.5,0.1-0.9,0.2c0,0,0-0.1-0.1-0.1
			c0,0,0.1-0.1,0.2-0.2c0.3-0.9,0.6-1.6,0.9-2.2c0.3-0.6,0.5-1,0.6-1c0.1-0.1,0.2-0.3,0.2-0.4c0.1-0.1,0.1-0.3-0.1-0.6
			c-0.3-0.5-0.6-0.9-0.9-1.4c-0.3-0.3-0.7-0.5-1-0.5c-0.3,0-0.7,0.1-1.2,0.4c-0.6,0.4-1.3,0.8-2.2,1.1c-0.6,0.2-1.4,0.4-2.3,0.6
			c-0.1-0.1-0.1-0.1-0.2-0.1c-0.4-0.1-0.9-0.3-1.3-0.7c-0.2-0.1-0.3-0.1-0.5,0.1c-0.1,0.1-0.1,0.3-0.1,0.6
			C312.1,17.8,312,18.2,311.9,18.6L311.9,18.6z M306.3,32.4c0,2,0,4.2,0,6.6c0,0.1,0,0.2-0.2,0.2c-0.7,0-1.3,0-2-0.1
			c-0.2-0.1-0.3,0-0.3,0.1c0,0.1,0.1,0.2,0.3,0.4c0.4,0.5,0.8,1,1.3,1.4c0.4,0.4,0.9,0.7,1.2,0.9c0.2,0.1,0.4,0,0.5-0.1
			c0.5-0.5,1-0.9,1.5-1.3c0.1-0.1,0.1-0.1,0.2-0.2c0,0,0-0.1,0.1-0.1c0.2,0,0.5,0,0.9-0.1c0.6,0.1,1.3,0,2.2-0.1
			c0.5-0.1,1.1-0.2,1.8-0.4c0.4-0.1,0.9-0.4,1.7-0.9c0.4,0.6,0.9,1,1.2,1.4c0.4,0.4,1,0.9,1.5,1.3c0.4,0.3,0.9,0.6,1.3,0.9
			c0.3,0.2,0.6,0.4,0.9,0.6c0.3,0.1,0.6,0.2,0.9,0.2c0.5-0.1,1-0.1,1.5-0.2c0.3,0,0.6,0,1,0.1c0.4,0.1,0.8,0,1.3-0.1
			c0.2-0.1,0.5-0.2,0.9-0.4c0.3-0.1,0.5-0.3,0.6-0.5c0-0.1,0-0.2-0.1-0.3c-0.1-0.1-0.3-0.3-0.6-0.4c-0.3-0.2-0.8-0.5-1.5-0.9
			c-0.8-0.6-1.4-0.9-1.8-1.1c-0.4-0.2-0.8-0.5-1.3-0.8c-0.7-0.5-1.4-1-2-1.6c-0.3-0.3-0.6-0.6-0.9-0.9c0.4-0.7,0.9-1.7,1.2-2.9
			c0.3-1,0.4-2.1,0.4-3.4c0.1-0.8,0.3-1.3,0.3-1.6c0.2-0.4,0.2-0.7,0.1-1c-0.1-0.3-0.4-0.4-0.7-0.5c-0.4-0.1-0.8-0.2-1.2-0.4
			c-0.1-0.1-0.3-0.1-0.4-0.2c-0.1,0-0.2,0.1-0.3,0.2c-0.3,0.1-0.8,0.4-1.7,0.9c-0.9,0.4-2.2,0.9-4.1,1.6c-0.4,0.1-0.7,0.2-0.9,0.2
			c0,0,0,0,0,0c-0.1,0-0.3,0-0.4-0.1c0,0-0.1,0-0.3,0c-0.2,0-0.5,0-0.7,0c-0.3-0.1-0.4,0.1-0.4,0.5c0,0.4,0.1,0.7,0.3,1.1
			c0.1,0.2,0.3,0.5,0.7,0.8c0.3,0.3,1.1,1.5,2.5,3.7c0.4,0.5,0.7,1.1,1,1.5c-0.3,0.3-0.7,0.5-1.1,0.9c-1,0.7-2.1,1.3-3.4,2
			c-0.1,0-0.3,0.1-0.4,0.1c0-0.1,0-0.2,0-0.2c0.1-0.9,0.1-2.9,0-6c-0.1-1.9-0.1-3.6-0.2-5c0.2-0.5,0.4-0.9,0.6-1.2
			c0.2-0.3,0.4-0.7,0.5-1.1c0.1-0.3,0.2-0.7,0.3-1.1c0.1-0.6,0.1-0.9,0-0.9c-0.1-0.1-0.2,0-0.3,0.2c-0.4,0.5-0.8,1.1-1.2,1.7
			c0-0.6,0-1.2,0-1.6c0-2,0.1-3.2,0.2-3.6c0.1-0.4,0.2-0.8,0.5-1.3c0.1-0.3,0.2-0.6,0.1-0.8c-0.1-0.2-0.3-0.5-0.6-0.8
			c-0.3-0.3-0.7-0.5-1.2-0.7c-0.4-0.2-0.8-0.2-1-0.1c-0.4,0.3-1.2,0.4-2.4,0.5c-0.2,0-0.3,0.1-0.3,0.2c0,0.3,0.1,0.6,0.3,0.9
			c0.2,0.3,0.5,0.5,0.8,0.6c0.2,0.2,0.6,0.3,1.1,0.5c0.2,0,0.3,0,0.2,0c-0.1,1.6-0.1,3.3-0.1,5.2c-0.2-0.2-0.5-0.3-0.9-0.5
			c-0.3-0.1-0.7-0.2-1.2-0.2c0.1-1.6,0.2-2.7,0.3-3.3c0.1-0.3,0.1-0.7,0-1c-0.1-0.3-0.4-0.5-0.6-0.7c-0.3-0.1-0.6-0.3-0.9-0.3
			c-0.3-0.1-0.6-0.1-1-0.2c-0.1,0-0.2,0-0.4,0c-0.1,0-0.3,0.1-0.4,0.2c0,0.1,0,0.2,0.1,0.5c0.1,0.1,0.1,0.3,0.1,0.4
			c0.3,1.9,0.4,3.8,0.3,5.8c0,1.5-0.2,3.2-0.4,5.3c-0.3,2.3-0.6,4.3-1.1,6.2c-0.3,1.2-0.7,2.3-1.2,3.3c-0.2,0.6-0.2,0.9-0.1,1.1
			c0.1,0.1,0.4,0,1-0.2c0.5-0.2,0.9-0.4,1.2-0.7c0.6-1.1,1.1-2.2,1.5-3.3c0.3-1.2,0.6-2.4,0.9-3.6c0.1,0.1,0.3,0.2,0.4,0.3
			c0.1,0.1,0.3,0.1,0.5,0.2c0.1,0,0.3,0,0.4,0c0.2-0.1,0.4-0.3,0.7-0.6C305.8,33,306,32.7,306.3,32.4L306.3,32.4z M304.3,25.6
			c0.2,0.2,0.4,0.5,0.7,0.8c0.4,0.4,0.6,0.5,0.8,0.5c0.2,0,0.4-0.1,0.6-0.2c0,0.6,0,1.3,0,2c-0.4,0.4-0.7,0.8-1,1.2
			c-0.2,0.2-0.7,0.7-1.5,1.6c0-0.1,0-0.1,0-0.2C304.1,29.5,304.2,27.6,304.3,25.6L304.3,25.6z M316.8,29.1c0.2-0.2,0.3-0.3,0.5-0.2
			c0.1,0,0.1,0.2,0,0.6c0,0.7-0.2,1.6-0.5,2.7c-0.1,0.4-0.3,0.9-0.5,1.4c-0.4-0.4-0.8-0.9-1.2-1.3c-0.4-0.4-0.7-0.8-1.1-1.1
			C314.6,30.6,315.5,30,316.8,29.1L316.8,29.1z M332.6,21.4c-0.2,0.5-0.5,1-0.9,1.6c-0.2,0.4-0.4,0.8-0.7,1.1
			c-0.3,0.4-0.5,0.8-0.7,1.1c-0.4,0.7-0.5,1.1-0.4,1.2c0.1,0.1,0.6,0.1,1.3-0.1c0.3-0.1,0.6,0,0.8,0.1c0.1,0,0.4-0.1,0.9-0.2
			c-0.1,1.1-0.1,2.2,0,3.4c0.1,1.8,0,4.6-0.3,8.5c0,0.3,0,0.5-0.1,0.7c-0.1,0.3-0.1,0.6,0.2,0.9c0.2,0.3,0.5,0.7,0.8,1.2
			c0.2,0.3,0.4,0.4,0.6,0.3c0.3,0,0.6-0.2,0.9-0.5c0.1-0.2,0.3-0.4,0.4-0.6c0.1-0.2,0.2-0.5,0.2-1c0.1-2.4,0.2-4.6,0.1-6.7
			c-0.1-2.2-0.1-3.7,0-4.6c0.1-0.9,0-1.6-0.1-2c-0.1-0.4-0.2-0.6-0.5-0.8c-0.1-0.1-0.2-0.1-0.3-0.1c0,0,0.1-0.1,0.1-0.1
			c0.4-0.4,0.9-0.9,1.3-1.4c0.4-0.4,0.7-0.8,1.1-1.3c0.2-0.3,0.5-0.6,0.7-0.8c0.2-0.2,0.4-0.5,0.4-0.9c0-0.3-0.2-0.6-0.5-0.9
			c-0.2-0.2-0.5-0.5-0.9-0.7c-0.4-0.2-0.8-0.4-1.2-0.6c-0.4-0.1-0.7-0.3-0.9-0.5c-0.3-0.2-0.6-0.3-0.8-0.2c-0.1,0.1-0.2,0.3-0.2,0.6
			c0,0.3,0,0.6-0.1,0.9c-0.1,0.3-0.2,0.5-0.3,0.9C333.2,20.3,332.9,20.8,332.6,21.4L332.6,21.4z M339.9,22.5
			c-0.1,0.3-0.2,0.6-0.4,0.9c-0.1,0.4-0.3,0.8-0.5,1.2c-0.2,0.5-0.5,1-0.7,1.4c-0.3,0.5-0.6,1-0.9,1.4c-0.2,0.4-0.4,0.7-0.6,1
			c-0.1,0.4-0.2,0.8-0.1,1.1c0.1,0.1,0.4,0.1,1.1-0.2c0.2-0.1,0.5-0.2,0.8-0.3c0.4-0.2,0.8-0.5,1.2-0.6c0.3-0.2,0.6-0.5,0.9-1
			c0.3-0.4,0.5-0.8,0.9-1.3c0.2-0.3,0.4-0.7,0.7-1.1c0.4-0.6,0.5-0.9,0.5-1.1c0-0.3-0.2-0.5-0.4-0.6c-0.2-0.1-0.4-0.3-0.6-0.4
			c-0.4-0.3-0.7-0.5-0.9-0.8c-0.1-0.1-0.2-0.1-0.4,0C340.3,22,340.1,22.2,339.9,22.5L339.9,22.5z M345.7,15.9
			c-0.2,0-0.4-0.1-0.7-0.3c-0.1-0.1-0.3-0.1-0.4-0.1c-0.1,0-0.2,0.2-0.3,0.4c0,0.2-0.1,0.3-0.2,0.5c-0.1,0.2-0.2,0.4-0.2,0.7
			c0,0.3,0.2,0.6,0.6,1.1c0.1,0.1,0.3,0.6,0.6,1.6c0.2,0.7,0.7,1.9,1.4,3.4c0.8,1.5,1.7,3,2.8,4.3c0.7,0.8,1.3,1.4,1.8,1.8
			c0.4,0.3,0.7,0.5,0.9,0.6c0.3,0.1,0.5,0.1,0.8,0c0.5-0.1,1.1-0.3,1.6-0.5c0.2,0,0.4,0,0.7-0.1c0.4,0,0.9,0,1.2-0.1
			c0.5-0.1,0.9-0.2,0.9-0.3c0.1-0.1,0-0.3-0.2-0.5c-0.3-0.2-0.5-0.4-0.8-0.6c-0.4-0.3-0.8-0.5-1.2-0.8c-1.4-1-2.5-2-3.3-3
			c-1.2-1.4-2.1-2.7-2.7-3.8c-0.7-1.2-1-2-1-2.3c0-0.3-0.1-0.6-0.2-0.8c-0.1-0.4-0.3-0.7-0.6-1c-0.3-0.3-0.6-0.4-0.9-0.4
			C346.3,15.9,346,15.9,345.7,15.9L345.7,15.9z M346.8,31.5c0,1.4-0.2,2.8-0.7,4.2c-0.4,1.2-1,2.4-1.8,3.7c-0.2,0.1-0.4,0.2-0.7,0.1
			c-0.2,0-0.5-0.1-0.8-0.2c-0.2-0.1-0.5-0.1-0.9-0.2c-0.4-0.2-0.7-0.2-0.8-0.2c-0.1,0.1,0,0.3,0.2,0.6c0.3,0.3,0.5,0.7,0.9,1.2
			c0.2,0.3,0.4,0.6,0.7,1c0.2,0.4,0.4,0.6,0.5,0.7c0.4,0.1,0.9,0.1,1.5-0.2c0.6-0.4,1.2-0.7,1.9-0.9c0.6-0.3,1.2-0.8,1.7-1.6
			c0.6-0.9,1-1.7,1.3-2.5c0.3-0.8,0.6-1.8,0.7-3.1c0.1-1.8,0.2-3.1,0.1-3.6c0-0.4-0.2-0.8-0.5-0.9c-0.3-0.2-0.7-0.4-1.1-0.6
			c-0.3-0.2-0.7-0.3-1-0.3c-0.7-0.1-1.7,0-3,0.1c-1.1,0.2-2.4,0.5-3.7,1c-0.4,0.1-0.9,0.1-1.4,0c-0.2,0-0.3,0-0.4,0.1
			c-0.1,0.1,0,0.3,0.1,0.5c0.4,0.6,1,1,1.6,1.2c0.1,0,0.2,0,0.4,0.1c-0.1,0.4-0.3,0.9-0.6,1.6c-0.5,1.3-1.1,2.4-1.7,3.3
			c-0.4,0.6-0.9,1.2-1.5,1.8c-0.1,0.2-0.3,0.3-0.4,0.4c-0.1,0-0.1,0.1-0.1,0.2c0,0.1-0.1,0.1-0.2,0.2c-0.1,0.1-0.1,0.1,0,0.2
			c0.1,0.1,0.3,0.1,0.6,0.1c0.3,0,0.6-0.1,0.8-0.2c0.9-0.6,1.6-1.2,2.2-1.7c0.7-0.7,1.4-1.6,2.2-2.6c0.6-0.9,1.2-1.9,1.9-3.1
			c0.1-0.2,0.2-0.3,0.2-0.5c0.3-0.1,0.5-0.1,0.7-0.2c0.4,0,0.7,0,0.9,0C346.7,31.1,346.8,31.3,346.8,31.5L346.8,31.5z"/>
		<path class="st10" d="M368.4,25c-1.4,2.7-2.8,5-4.4,6.6c-0.2,0.2-0.4,0.3-0.5,0.2c-0.2-0.1-0.3-0.1-0.3,0c0,0.1-0.1,0.3-0.2,0.4
			c-0.1,0.1-0.2,0.3-0.3,0.5c0,0.2,0.1,0.3,0.3,0.2c0.4-0.1,0.7,0,0.9,0c0.3,0.1,0.5,0.1,0.8,0c0.9-0.3,1.8-0.8,2.5-1.5
			c0.7-0.6,1.4-1.4,2-2.3c0,1.6-0.1,3.2-0.2,4.8c-0.1,0.9-0.1,2.3-0.2,4.2c0,0.7,0,1.2,0.1,1.6c0.1,0.5,0.2,1,0.4,1.4
			c0.1,0.1,0.2,0.3,0.3,0.3c0,0,0.1,0,0.2,0c0.2,0,0.4-0.1,0.6-0.3c0.2-0.2,0.4-0.4,0.5-0.6c0.1-0.2,0.2-0.4,0.4-0.6
			c0.1-0.2,0.2-0.6,0.1-0.9c0-0.3,0-0.8,0.1-1.6c0-0.8,0.1-1.9,0.1-3.2c0.1,0.1,0.3,0.3,0.6,0.5c0.3,0.2,0.5,0.3,0.7,0.3
			c0.1,0,0.4,0,0.6,0c0.4,0,0.9-0.1,1.4-0.2c0.4-0.1,0.7-0.2,0.7-0.4c0-0.1,0-0.2,0.1-0.3c0,1.6,0.1,3.3,0.1,5.2
			c0,0.2-0.1,0.3-0.2,0.2c-0.7,0.1-1.4,0.1-2,0.1c-0.2-0.1-0.4,0-0.4,0.1c-0.1,0.1,0.1,0.3,0.3,0.5c0.4,0.6,1,1.2,1.5,1.7
			c0.5,0.5,1,0.9,1.4,1.1c0.3,0.1,0.5,0.1,0.7-0.2c0.6-0.7,1.3-1.3,2-1.8c0.1-0.1,0.2-0.2,0.2-0.3c0.2-0.4,0.3-0.9,0.4-1.3
			c0-0.6,0-1.9-0.1-3.9c-0.2-2.7-0.3-4.7-0.3-5.9c0-1.3,0-2.1,0-2.3c0.1-0.6,0.3-1.1,0.5-1.8c0.1-0.4,0.2-0.8,0.1-1
			c-0.1-0.3-0.4-0.6-0.9-1c-0.4-0.3-1-0.6-1.6-0.7c-0.5-0.1-0.9-0.1-1.1,0.1c-0.4,0.4-1.3,0.7-2.7,1.1c-0.3,0.1-0.4,0.1-0.4,0.2
			c0,0.4,0.2,0.7,0.5,0.9c0.3,0.3,0.7,0.5,1.1,0.6c0.2,0.1,0.5,0.1,1,0.1c0.1,0,0.1,0.1,0.2,0.3c0,1.8,0,4,0,6.4
			c-0.2-0.2-0.5-0.4-0.7-0.5c-0.2-0.1-0.4-0.2-0.8-0.2c-0.1,0-0.3,0-0.5,0.1c-0.7,0.3-1.2,0.5-1.7,0.7c-0.1,0-0.3,0.1-0.4,0.1
			c0-1.2,0-2.6,0.1-4.2c0.3,0.4,0.7,0.7,1.2,1.1c0.1,0.1,0.2,0.2,0.1,0.3c-0.1,0.1-0.3,0.3-0.5,0.5c-0.1,0.1-0.2,0.2-0.2,0.3
			c0,0.1,0.1,0.1,0.3,0c0.4-0.1,0.6-0.3,0.8-0.4c0.1,0,0.2,0,0.4,0.1c0.1,0,0.3,0,0.5,0c0.1,0,0.2-0.1,0.3-0.1
			c0.2-0.1,0.4-0.2,0.6-0.2c0.3-0.1,0.4-0.2,0.4-0.5c0-0.3,0-0.5-0.1-0.7c-0.1-0.2-0.2-0.4-0.3-0.5c-0.1-0.2-0.3-0.4-0.6-0.5
			c-0.3-0.1-0.8-0.3-1.3-0.4c-0.1,0-0.3,0-0.5,0c-0.1,0-0.3,0.1-0.4,0.1c-0.1,0-0.3,0-0.6,0.1c0,0,0,0-0.1,0
			c0.1-0.5,0.1-0.9,0.2-1.2c0.1-0.4,0.1-0.7,0-1c-0.1-0.1-0.2-0.2-0.3-0.3c0.4-0.8,0.8-1.5,1.2-2.2c0.1-0.2,0.2-0.4,0.3-0.6
			c0.9-0.2,1.9-0.3,2.9-0.5c1.8-0.3,3.7-0.3,5.5-0.1c0.1,0,0.3,0.1,0.4,0.1c0.1,0,0.3,0,0.4-0.2c0.2-0.2,0.4-0.4,0.6-0.6
			c0.2-0.2,0.3-0.4,0.4-0.6c0.1-0.2,0.1-0.5,0-0.8c-0.1-0.3-0.2-0.6-0.3-0.8c-0.1-0.2-0.4-0.4-0.7-0.5c-0.5-0.1-1-0.3-1.4-0.6
			c-0.4-0.3-0.7-0.4-0.8-0.4c-0.1,0-0.3,0.1-0.5,0.4c-0.3,0.2-0.8,0.3-1.4,0.2c-0.7,0-1.7,0.1-2.9,0.2c0.2-0.4,0.4-0.8,0.4-1.1
			c0-0.3-0.1-0.6-0.4-0.8c-1.2-0.8-2.3-1.3-3.4-1.5c-0.4-0.1-0.6,0-0.7,0.3c-0.1,0.2-0.2,0.3-0.4,0.4c-0.1,0-0.1,0.1,0,0.3
			c0.1,0.2,0.1,0.4,0,0.7c-0.1,0.8-0.3,1.6-0.5,2.4c-2.3,0.4-4.4,0.9-6.4,1.6c-0.3,0-0.6,0-0.9,0c-0.3,0-0.5,0-0.6-0.1
			c-0.1,0-0.2,0.1-0.3,0.2c-0.1,0.1-0.1,0.3,0,0.5c0.1,0.3,0.2,0.5,0.3,0.6c0.1,0.2,0.3,0.4,0.4,0.7c0.2,0.3,0.4,0.6,0.7,0.9
			c0.3,0.3,0.5,0.5,0.6,0.6c0.1,0.1,0.3,0.2,0.4,0.2c0.1,0,0.4-0.1,0.8-0.3c0.6-0.2,1.6-0.5,3.1-0.9c0.1,0,0.2-0.1,0.4-0.1
			C368.9,23.8,368.7,24.4,368.4,25L368.4,25z M398.8,16.9c-0.4,0-1,0-1.6,0c-0.3,0-0.6,0-0.7,0c-0.1,0-0.2,0.1-0.2,0.4
			c0,0.3-0.1,0.5-0.3,0.7c-0.2,0.2-0.5,0.4-0.9,0.8c-0.4,0.4-0.9,0.7-1.3,0.8c-0.4,0.2-0.8,0.3-1,0.2c-0.1,0-0.2,0-0.3,0
			c-0.1,0.1-0.1,0.4,0.2,0.8c0.2,0.3,0.5,0.6,0.8,0.8c0.1,0.1,0.4,0.2,0.8,0.2c0.4,0,0.8,0,1.1,0c0.1,0,0.2,0,0.2,0c0,0,0,0.1,0,0.3
			c-0.3,0.8-0.4,1.7-0.2,2.9c0.1,0.2,0.2,0.4,0.2,0.6c0.1,0.5,0.3,0.9,0.4,1.1c0.1,0.1,0.1,0.2,0.1,0.3c0,0.1-0.1,0.1-0.3,0.1
			c-0.3,0-0.7,0-1.1,0.1c-0.2-0.1-0.5-0.2-0.8-0.2c-0.7-0.1-1.1-0.2-1.4-0.3c-0.3-0.1-0.4-0.1-0.5,0c-0.1,0.1-0.2,0.3-0.3,0.5
			c-0.1,0.1,0,0.2,0.1,0.4c0.1,0.3,0.3,1,0.3,2.1c0.1,1.8,0.1,3.6,0.1,5.3c0,0.8,0,2,0,3.7c0,0.6,0.1,1.1,0.2,1.4
			c0.1,0.6,0.2,1,0.5,1.4c0.1,0.1,0.2,0.3,0.3,0.3c0.1,0,0.2,0,0.3,0c0.2,0,0.4-0.1,0.6-0.3c0.2-0.2,0.3-0.4,0.4-0.6
			c0.1-0.2,0.2-0.4,0.4-0.6c0.1-0.2,0.1-0.5,0-0.9c0-0.3,0-0.7,0-1.4c0-0.9,0-2.2,0-3.8c0-1.2,0-2.7,0-4.4c0-0.4,0-0.7,0.1-0.9
			c0.2,0.1,0.3,0.1,0.4,0.2c0,0,0.2,0.1,0.5,0.3c0.2,0.1,0.3,0.3,0.5,0.5c0.2,0.3,0.4,0.5,0.6,0.6c0.3,0.1,0.5,0.2,0.6,0.1
			c0.3-0.1,0.7-0.3,1.2-0.4c0.3-0.1,0.6-0.2,0.7-0.3c0.1-0.1,0.2-0.3,0.2-0.5c0-0.2-0.1-0.5-0.3-0.9c-0.7-1.1-1.3-2-1.6-2.7
			c-0.1-0.4-0.2-0.8-0.2-1.3c-0.1-0.3,0-0.8,0.3-1.5c0.3-0.9,0.8-1.7,1.5-2.5c0.5-0.7,0.8-1.1,0.8-1.4c0.1-0.3,0.1-0.7,0-1
			c-0.1-0.5-0.3-0.7-0.5-0.8C399.3,16.9,399.1,16.9,398.8,16.9L398.8,16.9z M410.7,32.3c0.7-0.1,1.6-0.4,2.4-0.7
			c0.4-0.2,0.6-0.4,0.6-0.6c0-0.1,0.1-0.3,0.2-0.4c0-0.1,0-0.2,0-0.3c0-0.3-0.1-0.6-0.5-0.9c-0.3-0.3-0.7-0.5-1.2-0.5
			c-0.4,0-0.7-0.1-0.9-0.2c-0.1-0.1-0.3,0-0.6,0.3c-0.1,0.3-0.4,0.7-1.1,1.3c-0.4,0.4-1,0.8-1.7,1.3c-0.4-0.3-0.7-0.6-1.1-0.9
			c-0.3-0.3-0.6-0.5-0.9-0.6c0.3-0.2,0.6-0.4,1.1-0.6c0.9-0.5,1.9-1.2,3-2.2c0.3-0.2,0.5-0.4,0.6-0.6c0.1-0.1,0.1-0.3,0.2-0.5
			c0-0.2,0-0.4,0.1-0.5c0-0.1,0-0.2,0-0.3c0-0.1-0.1-0.2-0.1-0.3c0-0.1-0.1-0.1-0.1-0.2c0.2-0.5,0.3-1,0.4-1.4
			c0.2-1.4,0.5-2.8,1-4.2c0.1-0.2,0.2-0.4,0.4-0.7c0.2-0.3,0.2-0.6,0.1-1.1c-0.1-0.3-0.2-0.6-0.5-0.9c-0.1-0.2-0.4-0.4-0.6-0.6
			c-0.3-0.2-0.7-0.4-1.2-0.6c-0.5-0.4-0.9-0.5-1.2-0.5c-0.3,0-0.5,0.2-0.7,0.4c-0.1,0.2-0.7,0.5-1.7,0.8c-0.3,0.1-0.7,0.2-1.1,0.3
			c-0.4,0-0.7,0.1-0.7,0.3c0,0.2,0,0.5,0.1,0.7c0.2,0.4,0.4,0.8,0.7,1.2c0.2,0.3,0.5,0.6,0.8,0.8c0.3,0.2,0.8,0.2,1.4-0.2
			c0,0,0.1,0,0.1,0c0,0.1,0,0.2,0.1,0.2c-0.2,1.7-0.5,3.6-0.7,5.9c-1.2,0.7-2.3,1.4-3.1,2c0.1-1.8,0.2-3.3,0.4-4.2
			c0.1,0.1,0.1,0.1,0.2,0.2c0.2,0.3,0.6,0.6,1.1,0.8c0.3,0.1,0.5,0.2,0.8,0c0.2-0.1,0.4-0.4,0.4-0.8c0-0.4-0.1-0.8-0.2-1.1
			c-0.3-0.5-0.7-0.8-1.2-1c-0.2-0.1-0.4-0.1-0.6-0.1c0.1-0.4,0.2-0.8,0.3-1.1c0-0.2-0.1-0.4-0.2-0.6c-0.2-0.2-0.4-0.5-0.8-0.6
			c-0.4-0.2-0.8-0.4-1.2-0.5c-0.4-0.1-0.9-0.2-1.2-0.3c-0.2-0.1-0.4,0-0.5,0.2c-0.1,0.3-0.3,0.5-0.5,0.6c-0.1,0.1-0.2,0.3-0.2,0.5
			c0,0.2,0.1,0.4,0.2,0.6c0.1,0.1,0.2,0.3,0.3,0.6c0.1,0.3,0.2,0.6,0.3,1.1c0.1,0.5,0,3.6-0.1,9.1c-0.1,5.3-0.2,8.1-0.4,8.5
			c-0.1,0.4-0.3,0.8-0.7,1.3c-0.1,0.2-0.1,0.5,0.2,1c0.3,0.6,0.6,1,0.7,1.2c0.1,0.2,0.2,0.3,0.3,0.3c0.1,0,0.4-0.1,0.7-0.2
			c1-0.4,2-1.1,3-1.9c0.8-0.6,1.5-1.3,2.1-2c0.5-0.6,0.9-1.1,1.1-1.5c0.1-0.2,0.2-0.4,0.4-0.7c0.9,1.1,2,2.2,3.3,3.3
			c0.2,0.2,0.4,0.4,0.7,0.5c0.2,0.1,0.4,0.1,0.7,0c0.2-0.1,0.5-0.1,0.9-0.2c0.3,0,0.8-0.1,1.3-0.1c0.3-0.1,0.7-0.2,1.2-0.6
			c0.4-0.3,0.8-0.5,1.3-0.8c0.2-0.1,0.2-0.3,0-0.6c-0.6-0.4-1.3-0.8-2.2-1.1c-2.6-1.1-4.4-2.2-5.5-3.2c-0.4-0.4-1-0.9-1.6-1.4
			C409.5,32.5,410.1,32.4,410.7,32.3L410.7,32.3z M404.1,31.5C404.1,31.5,404.1,31.5,404.1,31.5c0.5,0.3,0.9,0.6,1.3,1
			c0.4,0.3,1.3,1.4,2.6,3.2c0.1,0.1,0.2,0.3,0.4,0.5c-0.7,0.4-1.3,0.7-1.6,0.9c-0.3,0.1-1.3,0.6-3,1.5c-0.2,0-0.3,0-0.3,0
			C403.6,37.9,403.8,35.5,404.1,31.5L404.1,31.5z M427.1,22.3c-0.5,1.4-1.1,2.9-2,4.5c-0.9,1.8-1.7,3.1-2.3,4
			c-0.1,0.2-0.3,0.3-0.4,0.2c-0.2,0-0.3,0-0.3,0.1c0,0.1-0.1,0.3-0.2,0.3c-0.1,0.1-0.2,0.3-0.2,0.5c0,0.1,0.1,0.2,0.3,0.3
			c0.2,0,0.4,0,0.7,0c0.3,0,0.6-0.1,0.8-0.3c0.2-0.1,0.6-0.3,1-0.6c0.6-0.4,1.3-1,2.2-1.8c0.7-0.8,1.5-1.6,2.1-2.4
			c0.5-0.6,1.2-1.5,2.3-2.5c0.4-0.4,0.6-0.9,0.6-1.3c0-0.4-0.2-0.8-0.6-1.1c-0.7-0.6-1.5-1.1-2.5-1.4c-0.8-0.2-1.2-0.2-1.2,0
			c0,0.2-0.1,0.3-0.3,0.4c-0.1,0-0.1,0.1,0,0.4C427.2,21.8,427.1,22,427.1,22.3L427.1,22.3z M433.4,15.8c-0.1-0.1-0.3-0.2-0.5-0.2
			c-0.1,0-0.2,0.1-0.3,0.3c-0.1,0.2-0.3,0.4-0.6,0.7c-0.2,0.2-0.3,0.4-0.3,0.6c0,0.1,0.1,0.2,0.3,0.3c0.2,0.1,0.4,0.2,0.6,0.2
			s0.4,0.2,0.6,0.5c1,2.4,1.7,4,2,4.8c0.4,1.1,1,2.2,1.8,3.4c0.7,1.1,1.8,2.5,3.3,4.2c0.3,0.3,0.6,0.6,0.9,0.9
			c0.2,0.2,0.5,0.3,0.8,0.4c0.2,0.1,0.6,0,0.9-0.1c0.4-0.1,0.7-0.2,1.1-0.2c0.4,0,0.7-0.1,0.9-0.2c0.3-0.1,0.6-0.2,0.9-0.3
			c0.1-0.1,0.4-0.1,0.6-0.1c0.3,0,0.5-0.1,0.9-0.2c0.3-0.1,0.5-0.2,0.6-0.3c0-0.1-0.1-0.2-0.4-0.5c-0.4-0.4-0.9-0.7-1.3-0.9
			c-1.1-0.5-2-1-2.6-1.5c-0.7-0.6-1.5-1.4-2.4-2.5c-1-1.2-2.2-3.2-3.7-5.8c-0.2-0.4-0.4-0.7-0.5-1c-0.1-0.2-0.3-0.4-0.5-0.6
			c-0.1-0.2-0.3-0.4-0.6-0.5c-0.3-0.2-0.7-0.4-1.2-0.6c-0.4-0.2-0.7-0.3-0.9-0.3C433.8,16,433.6,15.9,433.4,15.8L433.4,15.8z
			 M432.4,40.4c1-0.2,2.7-0.6,5.2-1.4c0.1,0.4,0.3,0.9,0.5,1.3c0.3,0.8,0.6,1.2,0.9,1.2c0.4,0,0.7,0,0.9-0.2
			c0.4-0.3,0.7-0.6,0.9-0.9c0.3-0.5,0.4-1,0.3-1.5c-0.1-1.3-0.4-2.3-0.9-3.1c-0.6-1.1-1.6-2.1-3.1-2.9c-0.7-0.3-1.1-0.4-1.3-0.3
			c-0.1,0.1-0.1,0.4,0.1,0.9c0.1,0.6,0.3,1.3,0.6,2c-1.4,0.1-2.8,0.3-4.1,0.6c-0.2,0.1-0.3,0.1-0.4,0c0-0.1,0-0.2,0.1-0.3
			c1.2-2.1,1.9-3.3,2-3.7c0.1-0.4,0.3-0.7,0.6-1.1c0.3-0.2,0.4-0.5,0.3-0.8c-0.1-0.3-0.2-0.6-0.5-0.9c-0.2-0.3-0.7-0.4-1.4-0.5
			c-0.8-0.1-1.5-0.3-1.9-0.5c-0.1-0.1-0.3-0.1-0.3,0.1c-0.2,0.3-0.3,0.6-0.2,0.9c0,1.4-0.3,2.7-0.9,4.1c-0.8,1.7-1.7,2.8-2.7,3.3
			c-0.6,0.3-1,0.6-1,0.9c-0.1,0.2,0,0.6,0.1,1.2c0.1,0.4,0.4,0.8,0.8,1.1c0.3,0.2,0.7,0.5,1,1c0.2,0.2,0.5,0.4,0.9,0.6
			c0.3,0.1,0.6,0,0.9-0.4C429.9,40.9,430.8,40.7,432.4,40.4L432.4,40.4z M458.8,16.2c-0.5,0-0.7,0-0.7,0.2c0,0.1,0,0.3-0.2,0.4
			c-0.1,0.1-0.2,0.2-0.1,0.4c0.3,0.6,0.6,1.3,1.1,2c0.5,0.7,1,1.2,1.4,1.5c0.4,0.3,0.8,0.5,1.2,0.5c0.4,0,0.8-0.1,1.2-0.2
			c0.4-0.1,0.9-0.3,1.4-0.4c0.4-0.1,0.8-0.2,1.2-0.3c0.6-0.2,1.1-0.3,1.5-0.5c0.5-0.2,1-0.4,1.5-0.7c0.1-0.1,0.3-0.1,0.4-0.1
			c0.1,0,0.2,0,0.3,0.1c0.1,0.1,0.1,0.2,0.1,0.5c-0.4,4.9-0.5,11.2-0.4,19.1c0,0.3-0.1,0.5-0.3,0.5c-0.6,0.1-1.4,0.1-2.4,0.1
			c-0.5-0.1-0.9-0.1-1,0c-0.1,0.1,0,0.2,0.2,0.4c0.2,0.1,0.5,0.3,0.6,0.5c0.4,0.4,0.8,0.7,1.1,1c0.4,0.4,0.7,0.7,0.9,1
			c0.4,0.3,0.7,0.6,1,0.9c0.3,0.2,0.5,0.3,0.8,0.2c0.4-0.1,0.8-0.4,1.2-0.6c0.5-0.4,1-0.7,1.5-1.1c0.4-0.3,0.6-0.7,0.6-1.3
			c0-0.9,0-1.9,0-2.8c-0.1-1.6-0.2-4.4-0.2-8.5c-0.1-4.8,0-7.5,0.1-7.8c0.1-0.4,0.2-0.7,0.2-0.9c0-0.2,0-0.4,0.1-0.6
			c0.1-0.4,0.1-0.8,0.1-1.3c-0.1-0.4-0.2-0.7-0.3-1c-0.2-0.4-0.6-0.8-1.1-1.1c-0.5-0.4-1-0.6-1.4-0.7c-0.6-0.1-1.5-0.2-2.7-0.2
			c-2,0-3.6,0.2-4.9,0.6C461.3,16,460,16.2,458.8,16.2L458.8,16.2z M464.2,21.6c-0.4,0-1.4,0.3-3.1,0.8c-1.5,0.5-2.9,0.9-4.4,1.2
			c-0.4,0.1-0.7,0.2-0.9,0.2c-0.3,0-0.2,0.4,0.2,1.2c0.3,0.4,0.7,0.8,1.2,1.1c0.9,0.4,2,0.5,3.1,0.2c2.1-0.5,3.6-1,4.5-1.6
			c0.1-0.1,0.2-0.2,0.4-0.2c0.1-0.1,0.3-0.2,0.4-0.4c0.1-0.1,0.3-0.3,0.3-0.6c0-0.2,0-0.5,0-0.9c0-0.4-0.2-0.7-0.4-0.8
			c-0.1-0.1-0.3-0.2-0.6-0.2C464.8,21.7,464.5,21.7,464.2,21.6L464.2,21.6z M460.8,27.7c-0.9,0.2-2.2,0.6-3.8,1.3
			c-0.1,0-0.3,0-0.4,0c-0.6,0.1-1.2,0-1.9-0.2c-0.3-0.1-0.5,0-0.6,0.3c0,0.2,0,0.5,0.1,0.8c0.1,0.2,0.2,0.5,0.2,0.9
			c0.1,0.7,0.5,1.8,1.1,3.4c0.5,1.4,1,2.4,1.4,2.8c0.4,0.5,0.7,0.6,0.9,0.3c0,0,0-0.1,0.1-0.1c0.3,0.1,0.6,0,0.9-0.1
			c2-0.6,3.9-0.9,5.7-1c0.3,0,0.4-0.1,0.5-0.2c0.1-0.1,0.2-0.1,0.3-0.1c0.1,0,0.2-0.2,0.3-0.6c0.1-0.4,0.2-0.8,0.5-1.1
			c0.1-0.1,0.1-0.3-0.1-0.6c-0.1-0.2-0.3-0.3-0.5-0.4c0.3-0.6,0.6-1.2,0.9-1.8c0.5-1.1,0.7-1.7,0.5-2.1c-0.3-0.5-0.5-0.9-0.8-1.1
			c-0.5-0.5-1.2-0.8-2-1.1c-1-0.3-1.6-0.3-1.9,0C462,27.3,461.6,27.5,460.8,27.7L460.8,27.7z M459,31.5c0-0.2-0.1-0.3-0.1-0.5
			c0.3-0.1,0.6-0.3,1-0.4c0.6-0.2,1.1-0.3,1.6-0.4c0.1,0,0.2,0,0.3,0.1c0,0,0,0.1,0,0.3c0,0.4-0.1,0.9-0.2,1.5
			c-0.1,0.5-0.3,0.9-0.5,1.3c-0.6,0.1-1.1,0.2-1.6,0.4c-0.1,0-0.2,0-0.2,0.1C459.1,33.2,459.1,32.4,459,31.5L459,31.5z"/>
	</g>
</g>
</svg>
