<?xml version="1.0" encoding="utf-8"?>
<!-- Generator: Adobe Illustrator 20.0.0, SVG Export Plug-In . SVG Version: 6.00 Build 0)  -->
<svg version="1.1" id="圖層_1" xmlns="http://www.w3.org/2000/svg" xmlns:xlink="http://www.w3.org/1999/xlink" x="0px" y="0px"
	 viewBox="0 0 30 30" style="enable-background:new 0 0 30 30;" xml:space="preserve">
<style type="text/css">
	.st0{stroke:#000000;stroke-width:0.25;stroke-miterlimit:10;}
</style>
<g>
	<path d="M-30.7,48l-0.4,1.2c-0.9,0-2,0-3.1,0c-1.2,0-2.2,0-3,0c-0.8,0-1.5-0.2-2.3-0.4c-0.8-0.2-1.4-0.6-2-1.1
		c-0.6,0.9-1,1.5-1.3,1.8l-1-0.9c1.2-1.4,1.9-2.7,2.1-4.1h-1.8v-1.2c0.7-0.9,1.2-1.7,1.6-2.5h-1.8v-1.2h3.2v1.2
		c-0.4,0.8-0.9,1.7-1.5,2.5h1.6c0,0.2,0,0.4,0,0.6c0,0.9-0.2,1.7-0.6,2.6c0.5,0.4,1,0.8,1.6,1c0.6,0.2,1.4,0.4,2.5,0.4s2,0,2.8,0
		C-32.9,48.1-31.8,48.1-30.7,48z M-40.5,38.3l-0.9,0.9c-0.5-0.6-1.2-1.2-2-1.8l0.9-0.9C-41.5,37.2-40.8,37.8-40.5,38.3z M-31,45.6
		H-40v-1.1h2.2v-0.9h-1.9v-1.1h1.9v-0.7h1.2v0.7h2.2v-0.7h1.2v0.7h1.9v1.1h-1.9v0.9h2.2V45.6z M-35.8,41.2l-3.8,0.7l-0.3-1.1
		c0.2-0.1,0.3-0.2,0.3-0.4v-3.6h3.6v2.7h-2.4v1.2c0.4-0.1,1.2-0.2,2.5-0.5L-35.8,41.2z M-36.2,46.6c-0.6,0.4-1.6,0.8-2.7,1.1l-0.9-1
		c0.9-0.2,1.8-0.5,2.7-0.9L-36.2,46.6z M-37.2,38.4v-0.7h-1.2v0.7H-37.2z M-34.4,44.6v-0.9h-2.2v0.9H-34.4z M-31.1,41.5H-34
		c-0.4,0-0.7-0.1-0.9-0.3s-0.3-0.5-0.3-1v-3.5h3.6v2.7H-34v0.8c0,0.2,0.1,0.3,0.3,0.3h2.6V41.5z M-31.1,46.8l-0.8,1
		c-0.9-0.4-1.9-0.8-2.8-1l0.8-1C-33.1,46-32.1,46.4-31.1,46.8z M-32.7,38.4v-0.7H-34v0.7H-32.7z"/>
	<path d="M-16.1,47.5h-5.7v1.9h-1.3v-1.9h-5.7v-1.1h5.7v-0.8h-4.4v-4.9h10.1v4.9h-4.4v0.8h5.7V47.5z M-23.1,39.9h-5v-3.1h5V39.9z
		 M-24.3,38.8V38h-2.4v0.9H-24.3z M-23.1,42.6v-0.9h-3.1v0.9H-23.1z M-23.1,44.5v-0.9h-3.1v0.9H-23.1z M-17,39.9h-4.9v-3.1h4.9V39.9
		z M-18.7,42.6v-0.9h-3.1v0.9H-18.7z M-18.7,44.5v-0.9h-3.1v0.9H-18.7z M-18.3,38.8V38h-2.4v0.9H-18.3z"/>
</g>
<g>
	<path class="st0" d="M14.1,20.4l-0.3,0.8H8.9c-1.4,0-2.6-0.1-3.4-0.4C4.7,20.5,4,20,3.4,19.4c-0.6,1-1.1,1.6-1.6,2l-0.5-0.5
		c1.3-1.1,2.1-2.7,2.5-4.7H1.6v-0.7c0.8-1.1,1.5-2.1,2-3H1.3v-0.8h3.1v0.7c-0.7,1.3-1.4,2.3-1.9,3h2v0.7c-0.1,0.8-0.4,1.7-0.8,2.5
		c0.9,1.1,2.5,1.7,4.8,1.7H14.1z M4.3,10.7l-0.6,0.5c-0.7-0.8-1.4-1.5-2-2l0.5-0.6C3,9.2,3.7,9.9,4.3,10.7z M13.9,17.5H4.8v-0.7h2.4
		v-1.1h-2v-0.7h2V14H8v0.9h2.7V14h0.7v0.9h2.1v0.7h-2.1v1.1h2.5V17.5z M8.3,18.3c-1,0.6-1.9,1-2.6,1.3L5.2,19
		c0.9-0.3,1.7-0.7,2.6-1.2L8.3,18.3z M9.1,13.1c-0.9,0.2-2.1,0.5-3.6,0.8l-0.3-0.7c0.2-0.2,0.3-0.3,0.3-0.4v-4h3.2v2.8H6.2V13
		c0.9-0.2,1.9-0.4,2.8-0.6L9.1,13.1z M8,10.9V9.6H6.2v1.3H8z M10.7,16.8v-1.1H8v1.1H10.7z M13.7,13.5h-3c-0.1,0-0.3-0.1-0.5-0.3
		c-0.2-0.2-0.3-0.3-0.3-0.5V8.9h3.3v2.8h-2.6v1c0,0.1,0,0.1,0.1,0.2c0.1,0.1,0.1,0.1,0.2,0.1h2.8V13.5z M13.5,19l-0.4,0.6
		c-1-0.5-1.9-0.9-2.8-1.2l0.4-0.6C11.7,18.1,12.6,18.5,13.5,19z M12.5,10.9V9.6h-1.9v1.3H12.5z"/>
	<path class="st0" d="M28.8,19.2h-6v2H22v-2h-6v-0.7h6v-1.2h-4.5v-4.6h9.7v4.6h-4.5v1.2h6V19.2z M21.7,11.7h-4.7V8.8h4.7V11.7z
		 M21,11V9.5h-3.2V11H21z M22,14.6v-1.2h-3.7v1.2H22z M22,16.6v-1.3h-3.7v1.3H22z M26.5,14.6v-1.2h-3.7v1.2H26.5z M26.5,16.6v-1.3
		h-3.7v1.3H26.5z M27.8,11.7h-4.7V8.8h4.7V11.7z M27,11V9.5h-3.2V11H27z"/>
</g>
</svg>
