<?xml version="1.0" encoding="utf-8"?>
<!-- Generator: Adobe Illustrator 20.0.0, SVG Export Plug-In . SVG Version: 6.00 Build 0)  -->
<svg version="1.1" id="圖層_1" xmlns="http://www.w3.org/2000/svg" xmlns:xlink="http://www.w3.org/1999/xlink" x="0px" y="0px"
	 viewBox="0 0 279.4 78.3" style="enable-background:new 0 0 279.4 78.3;" xml:space="preserve">
<style type="text/css">
	.st0{fill-rule:evenodd;clip-rule:evenodd;fill:#FFFFFF;}
</style>
<g>
	<path class="st0" d="M53.8,38.2C40.4,20.3,28.7,24,29.1,24c13.2-6.7,26.5,9.3,29.6,14.6L53.8,38.2L53.8,38.2z"/>
	<path class="st0" d="M46.7,37.4c-7.8-12.1-18.1-12.2-18.3-12.2C40.9,22.1,52.3,38,52.3,38l0,0.1L47,37.4L46.7,37.4L46.7,37.4z"/>
	<path class="st0" d="M39.6,35.8c-0.5-0.6-0.9-1.2-1.4-1.8c-1.8-2.9-4.1-4.8-5.9-5.9c-0.5-0.4-1.1-0.7-1.6-1.1
		c7.9,1.8,12,7,13.5,9.5L39.6,35.8L39.6,35.8z"/>
	<path class="st0" d="M65.8,38.8c-0.1,0-5.3-0.4-5.2-0.4c-5.7-7.7-11.5-13.9-19.2-16.3c-3.7-1.2-6.7-1-9.4-0.2
		c2.9-1.6,6.5-1.7,9.7-1.3C55,22.4,64,35.9,65.8,38.8L65.8,38.8z"/>
	<path class="st0" d="M20.3,38.4C33.7,56.4,45.4,52.7,45,52.7c-13.2,6.7-26.5-9.3-29.6-14.6L20.3,38.4L20.3,38.4z"/>
	<path class="st0" d="M27.4,39.3c7.8,12.1,18.1,12.2,18.3,12.2c-12.5,3-23.9-12.9-23.9-12.9l0-0.1l5.3,0.7L27.4,39.3L27.4,39.3z"/>
	<path class="st0" d="M34.5,40.9c0.5,0.6,0.9,1.2,1.4,1.8c1.8,2.9,4.1,4.8,5.9,5.9c0.5,0.4,1.1,0.7,1.6,1.1c-7.9-1.8-12-7-13.5-9.5
		L34.5,40.9L34.5,40.9z"/>
	<path class="st0" d="M8.3,37.8c0.1,0,5.3,0.4,5.2,0.4c5.7,7.7,11.5,13.9,19.2,16.3c3.7,1.2,6.7,1,9.4,0.2c-2.9,1.6-6.5,1.7-9.7,1.3
		C19.1,54.3,10.1,40.8,8.3,37.8L8.3,37.8z"/>
	<path class="st0" d="M4,34.5C7.2,30.6,17.7,18,26,10.9C41-1.7,60.2,18.8,70.2,33.2c0.9,2.3,0.6,3.8-0.6,4.8c0,0-0.1,0.1-0.1,0.1
		c-0.3,0.2-0.5,0.4-0.7,0.5c-0.1,0-0.3,0.1-0.7,0.1C55.2,20.2,40.2,12.7,20.8,26c0,0,0.1,0,0.1,0c-0.4,0.1-0.7,0.2-1.1,0.3
		c11.6,1.4,10.8,9.8,10.6,10.3C17.9,28.5,2.7,36,2.7,36C3.1,35.5,3.5,35,4,34.5L4,34.5z"/>
	<path class="st0" d="M70.1,42.2c-3.2,3.9-13.6,16.5-22,23.6C33.1,78.4,13.9,57.9,3.9,43.4c-0.9-2.3-0.6-3.8,0.6-4.8
		c0,0,0.1-0.1,0.1-0.1c0.3-0.2,0.5-0.4,0.7-0.5C5.3,38,5.6,38,6,37.9c12.9,18.6,27.9,26,47.3,12.8c0,0-0.1,0-0.1,0
		c0.4-0.1,0.7-0.2,1.1-0.3C42.7,49,43.5,40.6,43.8,40.1c12.4,8.1,27.6,0.6,27.6,0.6C71,41.2,70.6,41.6,70.1,42.2L70.1,42.2z"/>
</g>
<g>
	<g>
		<path class="st0" d="M108.7,43.5c0.2-1,0.2-4.5,0-10.6c0-0.2,0-0.4,0-0.6c0,0,0.1-0.1,0.2-0.1c0.8-0.4,1.4-0.8,1.7-1.2
			c0.3-0.3,0.5-0.7,0.7-1c0.2-0.4,0.2-0.7,0-1c-0.2-0.3-0.4-0.6-0.6-0.9c-0.2-0.2-0.4-0.4-0.6-0.5c-0.1-0.1-0.3-0.1-0.5-0.1
			c-0.2,0-0.5,0-0.9,0.1c0,0-0.1,0-0.2,0c0-0.7,0-1.4,0-2.1c0.1-0.1,0.3-0.2,0.4-0.2c0.2-0.1,0.5-0.3,0.8-0.4c0.5,0.9,1.2,2,2,3.3
			c1.1,1.8,1.9,3.2,2.3,4.3c0.6,1.4,1.5,2.8,2.7,4.4c1.4,1.8,2.6,3.1,3.7,4c0.8,0.7,1.6,1.2,2.2,1.4c0.5,0.1,1.2,0.1,2-0.1
			c0.8-0.2,1.7-0.4,2.8-0.6c1.1-0.1,2.1-0.5,2.9-1c0.6-0.4,0.8-0.7,0.7-0.9c-0.3-0.5-0.8-1.1-1.5-1.6c-0.7-0.5-1.7-1.1-2.9-1.7
			c-1-0.4-2.5-1.5-4.5-3.2c-2.5-2.2-4.7-4.4-6.8-6.9c-0.6-0.8-1.2-1.5-1.7-2c1.1-0.1,2.4-0.4,3.9-0.8c1.3-0.4,2.7-0.9,4.1-1.6
			c0.6-0.3,0.9-0.7,0.9-1c0-0.2,0.1-0.4,0.2-0.6c0-0.1,0-0.3,0-0.4c0-0.4-0.3-0.9-0.9-1.4c-0.4-0.5-1.1-0.7-1.9-0.6
			c-0.7,0-1.2-0.1-1.5-0.2c-0.3-0.2-0.6,0-0.9,0.6c-0.1,0.4-0.8,1.2-1.9,2.2c-0.9,0.8-1.9,1.7-3.2,2.7c-0.4-0.4-0.7-0.6-0.8-0.7
			c-0.1,0-0.2-0.1-0.3-0.1c-0.2-0.3-0.4-0.6-0.5-0.7c-0.2-0.2-0.4-0.4-0.6-0.5c-0.1-0.1-0.3-0.1-0.5-0.1c-0.2,0-0.5,0-0.8,0.1
			c0-0.7,0-1.4,0.1-2.2c0.1,0,0.2-0.1,0.3-0.1c0.9-0.4,1.6-0.8,2-1.2c0.3-0.3,0.6-0.6,0.8-0.9c0.2-0.3,0.3-0.7,0.1-1
			c-0.1-0.3-0.3-0.6-0.5-0.9c-0.2-0.2-0.4-0.4-0.5-0.5c-0.1-0.1-0.3-0.2-0.5-0.2c-0.2,0-0.5,0-0.9,0.1c-0.2,0-0.4,0.1-0.6,0.2
			c0,0-0.1-0.1-0.1-0.1c0.4-0.1,0.7-0.3,1.1-0.6c1.4-0.8,2.4-1.5,3.2-2.1c0.6-0.6,1.1-1.1,1.5-1.6c0.2-0.3,0.6-0.6,1-0.9
			c0.2-0.2,0.4-0.7,0.4-1.3c0-0.5-0.1-0.9-0.3-1.3c-0.2-0.3-1.6-1.2-4.2-2.6c-0.5-0.3-0.9-0.6-1.2-0.7c-0.3-0.1-0.6-0.2-1-0.2
			c-3.6,1-6.8,1.8-9.9,2.5c-0.4,0-0.8-0.1-1.2-0.3c-0.2-0.2-0.5-0.3-0.9-0.1c-0.2,0.1-0.3,0.4-0.2,0.8c0.1,0.3,0.1,0.6,0.1,0.9
			c0,0.3,0,0.7,0.2,1.1c0.1,0.4,0.4,0.9,0.9,1.4c1,1.2,1.7,1.8,2,2c0.3,0.2,0.7,0.1,1.2-0.3c2.1-2.2,4.1-3.8,5.9-4.8
			c0.6-0.3,1-0.4,1.2-0.2c0.1,0.1,0.2,0.4,0.3,0.7c0.1,0.4-0.1,1.3-0.6,2.6c-0.5,1.3-1.1,2.4-1.7,3.4c0,0,0-0.1,0-0.1
			c-0.3-0.2-0.7-0.5-1.1-0.7c-0.3-0.2-0.7-0.4-1.1-0.5c-0.3,0-0.6,0-0.9,0c-0.3,0-0.5,0.2-0.6,0.4c-0.1,0.3-0.3,0.5-0.5,0.7
			c-0.2,0.1-0.3,0.5-0.1,1c0.2,0.8,0.5,1.4,0.7,1.7c0.1,0.2,0.2,0.5,0.2,0.9c-0.8,0.2-1.7,0.5-2.6,0.8c-0.7,0.2-1.4,0.3-2,0.3
			c-0.5,0-0.6,0.3-0.4,0.8c0.3,0.8,0.9,1.7,1.7,2.6c0.6,0.7,1.2,1.1,1.8,1.2c0.3,0,0.8,0,1.3-0.1c0,0.5-0.1,1-0.1,1.4
			c-0.7,0.2-1.4,0.5-2.1,0.7c-0.2,0-0.4,0.1-0.5,0.2c0-0.4-0.2-0.8-0.3-1c-0.3-0.2-2-0.7-5-1.4c-0.5-0.1-0.8,0-0.9,0.2
			c-0.3,0.4-1.3,1.1-3,1.9c-2,1-3.2,1.6-3.7,1.8c-0.3,0-0.7,0.1-1,0.1c-0.3,0-0.4,0.3-0.2,0.6c0.1,0.5,0.5,1,1,1.6
			c0.4,0.4,0.9,0.8,1.4,1c0.4,0.1,1,0.1,1.7,0c0.5-0.1,1-0.2,1.5-0.4c0.7-0.4,1.4-0.8,2-1.4c0.4-0.1,0.7-0.2,0.8-0.2
			c0.1,0,0.1,0.4,0,1.1c-0.6,1.6-1.3,3.1-2.1,4.4c-0.7,1.2-1.6,2.6-2.7,4.2c-0.5,0.9-1.3,2-2.4,3.4c-0.7,0.9-1,1.4-0.9,1.6
			c0.1,0.1,0.4,0.1,0.9,0c2-0.7,3.6-1.5,4.7-2.4c1.2-0.9,2.4-2.1,3.6-3.6c0.6-0.9,1.3-2.1,1.9-3.5c0.2-0.7,0.6-1.7,1.2-3.2
			c0.3-1.1,0.6-1.9,0.9-2.4c0.3,0.4,0.7,0.9,1.2,1.4c0.7,0.7,1.3,1,1.8,1c0,0,0.1,0,0.3,0c0,0.4,0,0.8,0,1.2
			c-0.7,0.2-1.5,0.5-2.3,0.8c-0.7,0.2-1.3,0.4-1.8,0.4c-0.5,0-0.6,0.3-0.3,0.9c0.4,0.8,1,1.7,1.9,2.5c0.7,0.7,1.3,1,1.9,1
			c0.2,0,0.4,0,0.7,0c0,2.6,0,4.9,0,7c0,0.6-0.3,0.9-0.8,0.9c-0.5,0-1-0.1-1.5-0.1c-0.7,0-1.3,0-1.8,0c-0.4,0-0.4,0.2,0,0.7
			c0.4,0.4,0.9,0.9,1.6,1.3c0.5,0.4,1,0.9,1.6,1.4c0.3,0.3,0.7,0.7,1,1.1c0.2,0.3,0.4,0.5,0.5,0.6c0.2,0.2,0.5,0.3,0.9,0.1
			c0.5-0.2,1-0.5,1.4-0.9c0.7-0.7,1.3-1.4,1.6-2C108.2,44.9,108.5,44.2,108.7,43.5L108.7,43.5z M157.6,17.1
			c-0.4,4.6-0.6,7.5-0.4,8.6c0.1,0.9,0.5,1.6,1,2.1c0.5,0.5,0.9,1,1.2,1.5c0.1,0.3,0.4,0.4,0.7,0.3c0.1,0,0.5-0.2,1-0.5
			c0.4-0.3,0.7-0.6,0.9-1c0.1-0.3,0.3-0.8,0.5-1.3c0.3-1,0.5-1.8,0.4-2.4c0-0.5,0-1.3-0.1-2.3c0-1.1-0.2-2.3-0.4-3.5
			c-0.2-1-0.6-1.8-1.1-2.3c-0.7-0.7-1.5-1.2-2.4-1.3c-0.8-0.1-1.2-0.2-1.4-0.1c-0.1,0.1-0.2,0.3-0.1,0.6
			C157.6,15.8,157.7,16.4,157.6,17.1L157.6,17.1z M153.5,27.5c-0.9-0.3-2-0.4-3.3-0.4c0-1.6,0-3.3,0-5.2c0.1,0,0.2-0.1,0.4-0.2
			c1.6-0.6,2.7-1.3,3.4-2c0.4-0.4,0.7-0.8,0.9-1.2c0.3-0.4,0.3-0.9,0.1-1.3c-0.2-0.4-0.5-0.8-0.7-1.1c-0.2-0.3-0.4-0.6-0.7-0.7
			c-0.1-0.1-0.4-0.2-0.7-0.2c-0.3,0-0.7,0-1.1,0.2c-0.5,0.1-1,0.3-1.5,0.5c0,0,0-0.1,0-0.1c0-1.6,0.2-2.9,0.4-3.8
			c0.1-0.3,0.2-0.6,0.2-0.8c0.5-0.2,1.1-0.4,1.9-0.6c0.7-0.3,1.1-0.7,1.2-1c0.1-0.2,0.2-0.5,0.3-0.7c0.1-0.2,0.2-0.4,0.2-0.5
			c0-0.5-0.2-1.1-0.8-1.8c-0.5-0.6-1.2-1-2.1-1c-0.7-0.1-1.3-0.3-1.7-0.5c-0.3-0.2-0.7,0-1.1,0.5c-0.3,0.5-1.2,1.4-2.8,2.5
			c-1.4,1-3.1,2-5,3.1c-0.6,0.2-1.1,0.4-1.5,0.5c-0.3,0-0.3,0.2,0.1,0.4c0.3,0.1,0.8,0.2,1.5,0.3c1.4,0.2,3,0.2,4.9,0
			c0.1,1,0.2,2.3,0.3,4c0,0.3,0,0.7,0,1.1c-0.9,0.3-1.8,0.6-2.5,1c-1.8,0.7-3.7,1.4-5.7,2.1c-1.2,0.4-2.2,0.6-3.1,0.7
			c-0.6,0-0.8,0.4-0.5,1.1c0.4,1,1.2,2.1,2.3,3.2c0.8,0.9,1.6,1.4,2.3,1.4c0.7,0,1.4-0.2,2.1-0.6c1.1-0.6,2.2-1.2,3.2-1.7
			c-0.5,1-1.2,2.2-2,3.7c-1.6,2.6-3.3,4.7-5.2,6.2c-0.3,0.1-0.6,0.2-1,0.3c-0.3,0-0.4,0.1-0.3,0.4c0.1,0.3,0.3,0.5,0.6,0.5
			c0.5,0,1,0.1,1.4,0.2c0.4,0.2,1,0.2,1.8-0.1c2.6-1.2,4.5-2.7,5.9-4.5c0.2-0.3,0.5-0.7,0.7-1c0,0.2,0,0.5,0,0.8
			c-0.1,2.2-0.2,5.6-0.2,10.2c0,1.7,0.1,3,0.3,4c0.1,0.9,0.4,1.6,0.7,2.2c0.1,0.3,0.3,0.5,0.5,0.6c0.1,0,0.3,0,0.4,0
			c0.3,0,0.6-0.2,0.9-0.5c0.3-0.4,0.6-0.7,0.7-0.9c0.2-0.3,0.4-0.7,0.6-1c0.2-0.4,0.3-0.9,0.1-1.5c0-0.7,0-2.1,0.1-4
			c0.1-2.5,0.1-6.2,0-10.9c0.8,0.7,1.7,1.6,2.7,2.6c0.7,0.7,1.2,1,1.6,0.9c0.8-0.1,1.4-0.4,1.8-1c0.4-0.5,0.6-1,0.5-1.6
			c0-0.3-0.2-0.7-0.5-1.1C155.7,28.5,154.8,27.9,153.5,27.5L153.5,27.5z M169.7,4.9c-0.7-0.5-1.3-0.6-1.9-0.3c-0.4,0.3-1,0.3-1.7,0
			c-0.5-0.2-0.8-0.2-0.8,0c0,1,0.1,1.7,0.2,2.1c0.2,0.6,0.5,1.3,0.7,2.1c0.1,0.4,0.2,1.2,0.2,2.4v31c0.1,0.3,0.1,0.5-0.1,0.7
			c-0.1,0-0.3,0-0.5,0c-0.8-0.1-1.9-0.2-3.2-0.3c-0.3,0-0.6-0.1-0.9-0.2c-0.4-0.1-0.7-0.1-0.7,0c0,0,0.1,0.2,0.3,0.5
			c0.2,0.2,0.4,0.4,0.7,0.7c0.3,0.5,0.7,1,1.1,1.5c0.4,0.5,0.8,0.9,1.2,1.3c0.3,0.3,0.8,0.7,1.3,1.1c0.3,0.3,0.7,0.6,1,0.9
			c0.3,0.2,0.7,0.4,1.1,0.4c0.5,0,1-0.3,1.6-0.8c0.6-0.6,1.2-1,1.7-1.3c0.6-0.3,1-0.7,1.1-1.2c0.3-0.9,0.4-1.6,0.4-2.1
			c-0.2-5.4-0.3-9.7-0.4-12.9c-0.1-3.8-0.1-6.9-0.1-9.1c0.1-4.4,0.3-7.2,0.6-8.4c0.2-0.7,0.5-1.4,0.8-2.1c0.4-0.8,0.6-1.4,0.5-1.9
			c-0.1-0.4-0.3-0.9-0.5-1.4c-0.2-0.5-0.7-1-1.5-1.5C171.1,5.7,170.4,5.3,169.7,4.9L169.7,4.9z M190.6,25.1c0.1,2.8,0.2,5.5,0.1,8.3
			c0,1.3,0,3.3,0,6.1c0,1,0.1,1.8,0.2,2.4c0.2,0.9,0.4,1.6,0.7,2.2c0.1,0.2,0.3,0.4,0.5,0.5c0.1,0,0.2,0,0.4,0
			c0.3,0,0.6-0.2,0.9-0.5s0.5-0.6,0.7-0.9c0.2-0.3,0.4-0.7,0.6-1c0.2-0.4,0.2-0.9,0-1.5c0-0.4,0-1.2,0-2.3c0-1.5,0.1-3.6,0.1-6.3
			c0-2,0-4.4,0.1-7.3c0-0.9,0.1-1.6,0.3-2.2c0.2-0.6,0.2-1.1,0-1.6c-0.1-0.2-0.4-0.4-0.8-0.6c0.5-0.7,1-1.5,1.5-2.2
			c0.6-1.1,1.3-2.2,1.9-3.3c0.3-0.7,0.7-1.2,1.1-1.6c0.3-0.4,0.5-1,0.5-1.8c0-0.5-0.4-1-1-1.5c-0.4-0.3-1-0.7-1.8-1.1
			c-0.7-0.3-1.5-0.6-2.2-0.8c-0.7-0.2-1.3-0.4-1.7-0.7c-0.5-0.3-1-0.4-1.4-0.3c-0.2,0.1-0.3,0.5-0.3,1.2c0,0.5,0,1.1-0.1,1.6
			c-0.1,0.6-0.3,1.3-0.5,2.1c-0.3,1.1-0.8,2.3-1.4,3.7c-0.5,1.2-1.1,2.5-1.8,3.9c-0.5,0.9-1,1.8-1.6,2.7c-0.6,0.9-1.1,1.8-1.6,2.6
			c-0.6,1.3-0.8,2.1-0.4,2.3c0.2,0.1,1,0,2.4-0.3c0.6-0.2,1.2-0.3,1.8-0.2C188.3,26.8,189.3,26.3,190.6,25.1L190.6,25.1z M213.7,7.6
			c-1.7,1-4.4,1.7-8.1,2.2c0,0,0,0,0,0c-0.7-0.1-1.5-0.3-2.2-0.7c-0.4-0.2-0.7-0.1-0.8,0.3c-0.1,0.3-0.1,0.7,0,1.2
			c0,0.3,0.1,0.8,0.1,1.5c0,1.2,0.3,3.1,0.8,5.7c0.5,2.4,1,4,1.5,4.8c0.5,0.7,0.9,0.9,1.1,0.5c0.1,0,0.2,0.1,0.3,0.1
			c0.1,0,0.3,0,0.5,0c0,0.1,0,0.4,0.1,0.7c0.3,0.8,0.6,1.4,0.8,1.7c0.1,0.2,0.2,0.6,0.2,1.1c-1.2,0.2-2.4,0.5-3.5,0.8
			c-3,0.7-5.3,1.4-6.9,2.2c-0.5,0.2-1.1,0.3-1.6,0.3c-0.4,0-0.5,0.4-0.2,1.2c0.3,0.8,0.8,1.5,1.5,2.2c0.4,0.4,0.8,0.6,1.2,0.6
			c0.9-0.1,1.7-0.3,2.3-0.5c0,0.1,0,0.2-0.1,0.3c-0.7,2.2-1.1,3.5-1.2,4.1c0,0.4,0,0.8,0.2,1.1c0.4,0.6,0.7,1.1,0.8,1.6
			c0.1,0.3,0.3,0.5,0.6,0.5c0.1,0,0.4-0.1,0.9-0.3c0.4-0.1,0.7-0.4,1-0.7c0.2-0.2,0.5-0.6,0.7-1c0.2-0.4,0.4-0.8,0.4-1.1
			c0-0.2,0.1-0.6,0.2-1.1c0.1-0.5,0.1-1.1,0.1-1.8c0-0.5-0.1-0.9-0.3-1.2c-0.3-0.5-0.7-0.9-1.1-1.2c1.6-0.6,3.2-1.2,4.9-1.6
			c0,1.7,0,2.9,0,3.8c0,2.5,0.1,4.6,0.1,6.4c0,0.7-0.3,1.1-0.8,1.1c-0.5,0-0.9,0-1.3,0c-0.7,0-1.3,0-1.8,0.1c-0.4,0-0.4,0.3,0.1,0.7
			c0.4,0.4,1,0.8,1.7,1.2c0.4,0.4,1,0.8,1.6,1.3c0.3,0.3,0.7,0.6,1,1c0.3,0.3,0.5,0.5,0.6,0.6c0.2,0.2,0.5,0.3,0.8,0.1
			c0.5-0.2,0.9-0.5,1.4-0.9c0.6-0.8,1.1-1.5,1.5-2.1c0.5-0.8,0.9-1.6,1-2.2c0.1-0.5,0.1-2.4-0.1-5.7c-0.1-1.9-0.2-4.1,0-6.7
			c1.5-0.3,3-0.5,4.6-0.6c1.9-0.2,3.6-0.1,5.3,0.2c0.7,0.1,1.2,0.2,1.6,0.2c0.3,0,0.7-0.3,1.1-0.9c0.4-0.5,0.6-1,0.5-1.6
			c0-0.4-0.2-0.7-0.6-1c-0.6-0.5-1.7-1.2-3.3-2.1c-0.3-0.2-0.7-0.2-1.1,0c-0.2,0.1-0.5,0.3-0.9,0.4c-0.2,0.1-0.5,0.2-0.7,0.2
			c-0.3,0-0.7,0.1-1,0.1c-0.6,0-2.2,0.3-4.8,0.8c-0.1-0.2-0.3-0.5-0.5-0.8c-0.6-0.6-1.4-1.2-2.5-1.9c-0.2-0.1-0.5-0.3-0.7-0.4
			c1.3-0.3,2.9-0.9,4.8-1.6c0.6-0.2,0.9-0.4,1.1-0.5c0.1-0.1,0.3-0.3,0.4-0.5c0.1-0.2,0.2-0.5,0.3-0.7c0-0.1,0.1-0.3,0.1-0.5
			c0-0.1,0-0.2,0-0.4c0-0.1-0.1-0.3-0.2-0.6c0-0.1-0.1-0.2-0.2-0.2c0.9-1.9,1.6-3.2,2.2-4.1c0.4-0.6,0.7-1.4,0.9-2.3
			c0.2-1.2-1.2-2.5-4.2-4C215.5,6.8,214.7,7,213.7,7.6L213.7,7.6z M209,14.3c0-0.1,0-0.2,0-0.2c1.2-0.5,2.4-0.9,3.6-1.2
			c0.5-0.1,0.9-0.1,1.1,0.1c0,0.2-0.1,0.6-0.3,1.1c-0.5,1-1.1,2.2-2,3.5c-0.9,0.2-1.7,0.4-2.4,0.6C208.9,17.2,208.9,15.9,209,14.3
			L209,14.3z M218,33c0.5,2.8,1.2,5.3,2.2,7.5c0.4,1.2,0.9,1.8,1.4,1.8c0.5,0,0.9-0.2,1.3-0.6c0.5-0.5,1-1.1,1.4-1.7
			c0.3-0.5,0.5-1.2,0.5-2c-0.1-1-0.8-2.2-2.1-3.6c-0.9-0.9-1.8-1.5-2.8-2c-1-0.5-1.7-0.8-1.9-0.7C217.9,32,217.9,32.3,218,33L218,33
			z"/>
		<path class="st0" d="M241.7,7.1c-3.1,5-5.5,9.6-7.2,13.7c-0.4,1-0.9,1.7-1.3,2.1c-0.5,0.7-0.7,1.2-0.6,1.4
			c0.9,1.9,1.8,3.1,2.5,3.7c0.6,0.5,1.2,0.5,2,0.1c0.7-0.3,1.3-0.4,1.9-0.4c-0.7,1.5-1.4,3-2.1,4.5c-0.1,0.3-0.4,0.7-0.8,1.1
			c-0.4,0.5-0.5,0.8-0.1,1c0.2,0.1,0.4,0.4,0.5,0.8c0.1,0.6,0.4,1.2,0.8,1.6c0.8,0.9,1.9,0.8,3.2-0.4c0.8-0.7,2.4-1.8,4.6-3.2
			c0.3-0.2,0.6-0.5,0.9-0.7c0,0,0,0.1,0.1,0.1c0.2,0.3,0.5,0.5,0.8,0.6c0.3,0,0.7-0.1,1-0.5c0.4-0.5,0.7-1.1,0.7-1.8
			c0.1-0.9-0.1-1.7-0.7-2.5c-0.6-0.7-1.4-1.2-2.4-1.5c-0.3,0-0.5-0.1-0.6-0.1c-0.1,0-0.2,0-0.3,0c0,0,0,0.3,0,0.7
			c0.1,0.9,0.3,1.7,0.4,2.4c-0.7,0.3-1.4,0.6-2.2,0.9c-0.8,0.4-1.3,0.5-1.3,0.4c-0.1-0.1,0.2-0.8,0.9-2.1c2.1-3.7,4-6.4,5.7-8.3
			c0.3-0.3,0.5-0.6,0.4-0.9c0-0.6-0.3-1.2-0.8-1.8c-0.7-0.8-1.4-1.3-2.3-1.6c-0.3-0.1-0.5,0-0.6,0.3c0,0.2-0.2,0.5-0.4,0.9
			c-1.2,1.9-2.3,3.7-3.3,5.4c-1.1,0-1.7-0.2-1.8-0.5c-0.1-0.2-0.1-0.5,0.1-0.9c0.9-1.9,2.2-3.8,3.7-5.7c1.6-2,2.6-3.4,2.9-4.3
			c0.2-0.7,0.1-1.5-0.2-2.3c-0.3-0.7-0.7-1.2-1.2-1.4c-0.5-0.1-0.9-0.4-1.2-0.7c-0.1-0.2-0.5-0.5-1.1-0.7
			C242.2,6.6,242,6.8,241.7,7.1L241.7,7.1z M234.9,41.6c1,2.1,2.1,3.9,3.4,5.4c0.5,0.7,0.9,1,1.3,0.9c0.3-0.1,0.5-0.3,0.7-0.6
			c0.3-0.4,0.5-0.9,0.6-1.3c0.1-0.4,0.1-0.9,0-1.3c-0.2-0.8-1-1.7-2.2-2.6c-0.8-0.6-1.7-1-2.6-1.1c-0.7-0.2-1.1-0.2-1.3-0.1
			C234.6,41,234.7,41.2,234.9,41.6L234.9,41.6z M240,38c0.7,1.8,1.5,3.3,2.5,4.6c0.4,0.7,0.8,1,1.1,0.9c0.2,0,0.5-0.2,0.7-0.5
			c0.2-0.4,0.4-0.8,0.6-1.1c0.1-0.4,0.2-0.8,0.1-1.3c-0.2-0.6-0.8-1.3-1.8-2.1c-0.7-0.5-1.4-0.8-2.1-1c-0.6-0.2-1-0.2-1.2-0.1
			C239.8,37.4,239.8,37.6,240,38L240,38z M243.8,35.4c0.1,0.2,0.4,0.6,0.8,1.1c0.5,0.6,1.2,1.4,2,2.4c0.3,0.3,0.6,0.5,0.9,0.7
			c0.1,0.1,0.3,0.2,0.5,0.1c0.2,0,0.3-0.1,0.4-0.2c0.1-0.1,0.3-0.3,0.4-0.5c0.1-0.1,0.3-0.3,0.3-0.6c0-0.2,0.1-0.5,0.1-0.9
			c0-0.3,0-0.7-0.1-1c0-0.2-0.4-0.6-1.1-1c-0.8-0.5-1.6-0.9-2.2-1c-0.3,0-0.6-0.1-0.9-0.1c-0.2,0-0.4,0-0.7,0c-0.3,0-0.6,0-0.8,0
			c-0.1,0-0.2,0.1-0.3,0.2C243.1,34.6,243.3,34.9,243.8,35.4L243.8,35.4z M250.6,17.4c-0.3,0-0.5,0-0.6,0.3c0,0.2,0,0.5,0,0.9
			c0.1,0.4,0.3,0.9,0.6,1.5c0.7,1.3,1.1,2.3,1.4,3c0.1,0.5-0.2,1.4-1.1,2.7c-0.2,0.4-0.3,0.8-0.2,1.2c0,0.6,0.4,1.4,1,2.3
			c0.4,0.7,0.9,1.3,1.4,1.8c0.5,0.5,1.3,1,2.4,1.4c0.2,0.1,0.4,0,0.5-0.2c0.5-0.6,0.8-1.2,0.8-1.7c0-0.6-0.2-1.3-0.6-2
			c-0.5-0.7-1.6-1.6-3.1-2.8c-0.1-0.1-0.1-0.2,0-0.4c1.9-1.6,2.9-2.7,3.1-3.3c0.1-0.6,0.2-1.1,0.1-1.4c-0.1-0.4-0.4-0.9-1-1.4
			c-0.5-0.5-1.3-1-2.4-1.5C252,17.6,251.3,17.4,250.6,17.4L250.6,17.4z M260.6,7.9c-1.3,0.5-2.5,0.9-3.5,1.3
			c-1.1,0.3-1.8,0.5-2.2,0.5c-0.8-0.1-1.3,0-1.6,0.1c-0.2,0.2-0.1,0.9,0.5,1.9c0.6,1,1.3,1.8,2.1,2.2c0.6,0.4,1.3,0.7,1.9,0.9
			c-0.4,0.2-0.4,0.5-0.1,0.9c0.7,1,1.1,1.6,1.1,2c-0.1,0.6-0.2,1.1-0.3,1.5c-0.5,1.4-0.9,2.6-1.2,3.6c-0.2,0.5-0.2,1.1-0.1,1.9
			c0.1,1.2,0.9,2.7,2.4,4.5c0.3,0.5,0.6,0.8,0.8,0.8c0.4,0,0.8,0,1.2-0.2c0.6-0.3,1-0.7,1.2-1.2c0.2-0.6,0.2-1.1-0.1-1.5
			c-0.1-0.2-1.1-1-2.9-2.4c-0.3-0.2-0.5-0.4-0.5-0.5c0-0.2,0-0.4,0-0.5c0.2-0.5,0.7-1.1,1.6-1.6c1.3-0.8,2.2-1.9,2.6-3.2
			c0.1-1.1-0.1-2-0.8-2.6c-0.7-0.7-1.5-1.1-2.4-1.4c0.8-0.2,1.7-0.5,2.6-0.8c1.1-0.4,2.2-0.9,3.4-1.5c0.4-0.2,0.8-0.8,1.2-1.6
			c0.3-0.6,0.3-1.1,0.1-1.6c-0.2-0.4-0.5-0.8-1-1.1c-0.6-0.4-1.2-0.8-1.7-1.1c-0.2-0.1-0.6-0.3-1-0.5c-0.3-0.1-0.6-0.2-1-0.3
			c-0.4,0-0.8,0.2-1.2,0.8C261.5,7.3,261.1,7.6,260.6,7.9L260.6,7.9z M265.1,13.7c-0.5,0-0.8,0.1-0.9,0.2c-0.2,0.2-0.3,0.4-0.2,0.6
			c0.5,0.6,1.2,1.2,2.1,1.7c0.2,0.1,0.2,0.6,0,1.3c-0.3,1.1-0.8,2.1-1.3,3.1c-0.4,0.7-0.6,1.2-0.6,1.5c0,0.3,0,0.7,0.1,1.1
			c0.3,0.9,0.8,1.7,1.5,2.3c0,0,0-0.1,0-0.2c-0.4,0.4-1.1,0.8-2,1.2c-0.1,0-0.2,0.1-0.2,0.2c0,0.1,0.1,0.2,0.2,0.2
			c0.6,0,1.3,0,2.2,0c0.3,0,0.6,0.1,0.7,0.4c0.7,0.7,1.3,1.1,1.8,1.3c0.4,0,1-0.2,1.7-0.7c0.5-0.5,0.8-1,0.9-1.4
			c0-0.6-0.4-1.3-1.2-2c-1-0.8-2.2-1.5-3.5-2c-0.2,0-0.4-0.1-0.4-0.3c0-0.1,0-0.3,0.3-0.6c1.1-0.7,2.2-1.5,3.2-2.3
			c0.6-0.5,1-1.1,1.2-1.7c0.1-0.6,0.1-1.3-0.1-2c-0.2-0.6-1-1.2-2.5-1.7C267,13.7,266,13.6,265.1,13.7L265.1,13.7z M260.5,31.3
			c-1.4,0.6-2.7,1.2-4.1,1.6c-1.1,0.3-1.9,0.4-2.5,0.3c-0.3,0-0.5-0.1-0.6-0.1c-0.2,0-0.4,0.1-0.5,0.2c-0.1,0.1-0.1,0.3-0.1,0.4
			c0,0.2,0,0.4,0,0.5c0,0.2,0,0.4,0,0.6c0.1,0.2,0.2,0.5,0.4,0.8c0.1,0.2,0.3,0.5,0.6,0.8c0.6,0.6,1.1,1.1,1.5,1.4
			c0.4,0.3,0.8,0.5,1.3,0.5c0.2,0,0.6,0,1-0.2c0,0.3,0,0.6,0,0.9c0,0.7-0.2,1.6-0.4,2.7c0,0.3-0.1,0.8-0.3,1.3
			c-2.5,0.2-4.4,0.5-5.7,0.8c-0.7,0.1-1.2,0.1-1.6,0c-0.3-0.1-0.6-0.1-0.9,0.2c-0.1,0.1,0,0.8,0.4,2c0.4,1.1,0.9,2,1.6,2.7
			c0.4,0.5,1.2,0.7,2.4,0.4c1.4-0.3,3.6-0.6,6.6-0.9c2.7-0.2,5-0.3,7.1-0.2c1.5,0,2.8,0.2,4,0.4c0.8,0.2,1.4,0.2,1.6,0
			c0.2-0.1,0.4-0.4,0.5-0.9c0.1-0.3,0.2-0.6,0.4-0.9c0.2-0.3,0.4-0.7,0.5-1c0.1-0.4,0-0.9-0.2-1.4c-0.2-0.2-0.5-0.5-0.9-0.8
			c-0.3-0.2-0.8-0.5-1.3-0.7c-0.3-0.1-0.6-0.4-1.1-0.7c-0.2-0.2-0.6-0.3-1-0.2c-0.2,0-0.5,0.1-0.7,0.2c-0.5,0.3-1,0.5-1.4,0.6
			c-0.4,0.1-1.4,0.2-2.9,0.1c-0.6,0-1.2-0.1-1.8-0.1c0.2-0.6,0.4-1.3,0.5-1.9c0.1-0.8,0.3-1.4,0.4-1.9c0.4-0.8,0.5-1.4,0.4-1.8
			c0-0.4-0.2-0.8-0.5-1.1c0.9-0.3,1.9-0.6,3-0.9c0.5-0.2,0.9-0.4,1.2-0.7c0.2-0.2,0.4-0.5,0.5-0.8c0.1-0.5,0.3-1.1,0.5-1.8
			c0.1-0.3,0-0.6-0.3-0.9c-0.6-0.5-1.2-0.8-1.8-0.8c-0.6,0-1.2-0.1-1.6-0.2c-0.3-0.1-0.7-0.2-1.1-0.2c-0.2,0-0.4,0-0.6,0
			c-0.2,0-0.4,0.2-0.5,0.4C262.2,30.5,261.6,30.9,260.5,31.3L260.5,31.3z"/>
	</g>
	<g>
		<polygon class="st0" points="176.7,72.9 176.7,59.6 178.9,59.6 178.9,72.9 176.7,72.9 		"/>
		<polygon class="st0" points="176.7,57.1 176.7,54.5 178.9,54.5 178.9,57.1 176.7,57.1 		"/>
		<polygon class="st0" points="161.5,72.9 161.5,54.5 163.9,54.5 163.9,70.7 172.9,70.7 172.9,72.9 161.5,72.9 		"/>
	</g>
	<g>
		<path class="st0" d="M138.5,72.9V59.6h2v1.9c1-1.5,2.4-2.2,4.2-2.2c0.8,0,1.5,0.1,2.2,0.4c0.7,0.3,1.2,0.7,1.5,1.1
			c0.3,0.5,0.6,1,0.7,1.7c0.1,0.4,0.1,1.1,0.1,2.2v8.2H147v-8.1c0-0.9-0.1-1.6-0.3-2.1c-0.2-0.5-0.5-0.8-0.9-1.1
			c-0.4-0.3-1-0.4-1.6-0.4c-1,0-1.8,0.3-2.5,0.9c-0.7,0.6-1,1.8-1,3.5v7.3H138.5L138.5,72.9z"/>
		<path class="st0" d="M107.7,72.9V54.5h2.3v6.6c1.1-1.2,2.4-1.8,4-1.8c1,0,1.8,0.2,2.6,0.6c0.7,0.4,1.2,0.9,1.6,1.6
			c0.3,0.7,0.5,1.7,0.5,3v8.4h-2.3v-8.4c0-1.1-0.2-1.9-0.7-2.5c-0.5-0.5-1.2-0.8-2.1-0.8c-0.7,0-1.3,0.2-1.9,0.5
			c-0.6,0.3-1,0.8-1.3,1.4c-0.3,0.6-0.4,1.4-0.4,2.5v7.3H107.7L107.7,72.9z"/>
		<path class="st0" d="M101.4,66.4l2.4,0.6c-0.5,2-1.4,3.5-2.7,4.6c-1.3,1-2.9,1.6-4.9,1.6c-2,0-3.6-0.4-4.8-1.2
			c-1.2-0.8-2.2-2-2.8-3.5c-0.6-1.5-1-3.2-1-4.9c0-1.9,0.4-3.6,1.1-5c0.7-1.4,1.8-2.5,3.1-3.2c1.3-0.7,2.8-1.1,4.4-1.1
			c1.8,0,3.4,0.5,4.6,1.4c1.3,0.9,2.1,2.2,2.6,3.9l-2.4,0.6c-0.4-1.3-1-2.3-1.9-2.9c-0.8-0.6-1.8-0.9-3.1-0.9c-1.4,0-2.6,0.3-3.5,1
			c-0.9,0.7-1.6,1.6-2,2.7c-0.4,1.1-0.6,2.3-0.6,3.5c0,1.6,0.2,2.9,0.7,4.1c0.5,1.2,1.2,2,2.1,2.6c1,0.6,2,0.9,3.1,0.9
			c1.4,0,2.5-0.4,3.5-1.2C100.5,69.2,101.1,68,101.4,66.4L101.4,66.4z"/>
		<path class="st0" d="M132.2,68.6l2.3,0.3c-0.4,1.4-1,2.4-2,3.2c-1,0.7-2.3,1.1-3.8,1.1c-1.9,0-3.5-0.6-4.6-1.8
			c-1.1-1.2-1.7-2.9-1.7-5c0-2.2,0.6-4,1.7-5.2c1.2-1.2,2.6-1.9,4.5-1.9c1.8,0,3.2,0.6,4.4,1.8c1.1,1.2,1.7,2.9,1.7,5.1
			c0,0.1,0,0.3,0,0.6h-9.9c0.1,1.5,0.5,2.6,1.2,3.4c0.7,0.8,1.7,1.2,2.8,1.2c0.8,0,1.5-0.2,2.1-0.7
			C131.4,70.2,131.8,69.6,132.2,68.6L132.2,68.6z M124.8,65h7.4c-0.1-1.1-0.4-2-0.8-2.5c-0.7-0.9-1.6-1.3-2.8-1.3
			c-1,0-1.9,0.3-2.6,1C125.2,62.9,124.9,63.8,124.8,65L124.8,65z"/>
	</g>
	<g>
		<path class="st0" d="M263.5,72.9V59.6h2v2c0.5-0.9,1-1.6,1.4-1.9c0.4-0.3,0.9-0.5,1.4-0.5c0.8,0,1.5,0.2,2.3,0.7l-0.8,2.1
			c-0.5-0.3-1.1-0.5-1.6-0.5c-0.5,0-0.9,0.1-1.3,0.4c-0.4,0.3-0.7,0.7-0.8,1.2c-0.3,0.8-0.4,1.7-0.4,2.6v7H263.5L263.5,72.9z"/>
		<polygon class="st0" points="234.2,72.9 234.2,54.5 236.5,54.5 236.5,65 241.8,59.6 244.7,59.6 239.7,64.5 245.3,72.9 242.5,72.9 
			238.1,66.1 236.5,67.6 236.5,72.9 234.2,72.9 		"/>
		<path class="st0" d="M209.2,72.9V59.6h2v2c0.5-0.9,1-1.6,1.4-1.9c0.4-0.3,0.9-0.5,1.4-0.5c0.8,0,1.5,0.2,2.3,0.7l-0.8,2.1
			c-0.5-0.3-1.1-0.5-1.6-0.5c-0.5,0-0.9,0.1-1.3,0.4c-0.4,0.3-0.7,0.7-0.8,1.2c-0.3,0.8-0.4,1.7-0.4,2.6v7H209.2L209.2,72.9z"/>
		<path class="st0" d="M191.1,72.9V54.5h6.9c1.4,0,2.5,0.2,3.4,0.6c0.8,0.4,1.5,0.9,2,1.7c0.5,0.8,0.7,1.6,0.7,2.4
			c0,0.8-0.2,1.5-0.6,2.2c-0.4,0.7-1.1,1.3-1.9,1.7c1.1,0.3,2,0.9,2.6,1.7c0.6,0.8,0.9,1.7,0.9,2.8c0,0.9-0.2,1.7-0.5,2.4
			c-0.4,0.7-0.8,1.3-1.3,1.7c-0.5,0.4-1.2,0.7-2,0.9c-0.8,0.2-1.8,0.3-3,0.3H191.1L191.1,72.9z M193.6,62.2h4c1.1,0,1.8-0.1,2.3-0.2
			c0.6-0.2,1.1-0.5,1.4-0.9c0.3-0.4,0.5-1,0.5-1.6c0-0.6-0.1-1.1-0.4-1.6c-0.3-0.5-0.7-0.8-1.3-1c-0.5-0.2-1.5-0.3-2.8-0.3h-3.7
			V62.2L193.6,62.2z M193.6,70.7h4.6c0.8,0,1.3,0,1.7-0.1c0.6-0.1,1-0.3,1.4-0.5c0.4-0.2,0.7-0.6,0.9-1c0.2-0.4,0.4-1,0.4-1.5
			c0-0.7-0.2-1.3-0.5-1.8c-0.4-0.5-0.8-0.9-1.5-1.1c-0.6-0.2-1.5-0.3-2.7-0.3h-4.2V70.7L193.6,70.7z"/>
		<path class="st0" d="M218,66.2c0-2.5,0.7-4.3,2.1-5.5c1.1-1,2.5-1.5,4.2-1.5c1.8,0,3.3,0.6,4.5,1.8c1.2,1.2,1.7,2.8,1.7,5
			c0,1.7-0.3,3.1-0.8,4c-0.5,1-1.3,1.7-2.2,2.3c-1,0.5-2,0.8-3.2,0.8c-1.9,0-3.4-0.6-4.5-1.8C218.6,70.2,218,68.5,218,66.2L218,66.2
			z M220.3,66.2c0,1.7,0.4,3,1.1,3.8c0.7,0.8,1.7,1.3,2.8,1.3c1.1,0,2-0.4,2.8-1.3c0.7-0.8,1.1-2.1,1.1-3.9c0-1.6-0.4-2.9-1.1-3.7
			c-0.7-0.8-1.7-1.3-2.8-1.3c-1.1,0-2.1,0.4-2.8,1.3C220.7,63.3,220.3,64.5,220.3,66.2L220.3,66.2z"/>
		<path class="st0" d="M257.3,68.6l2.3,0.3c-0.4,1.4-1,2.4-2,3.2c-1,0.7-2.3,1.1-3.8,1.1c-1.9,0-3.5-0.6-4.6-1.8
			c-1.1-1.2-1.7-2.9-1.7-5c0-2.2,0.6-4,1.7-5.2c1.2-1.2,2.6-1.9,4.5-1.9c1.8,0,3.2,0.6,4.4,1.8c1.1,1.2,1.7,2.9,1.7,5.1
			c0,0.1,0,0.3,0,0.6h-9.9c0.1,1.5,0.5,2.6,1.2,3.4c0.7,0.8,1.7,1.2,2.8,1.2c0.8,0,1.5-0.2,2.1-0.7
			C256.5,70.2,256.9,69.6,257.3,68.6L257.3,68.6z M249.9,65h7.4c-0.1-1.1-0.4-2-0.8-2.5c-0.7-0.9-1.6-1.3-2.8-1.3
			c-1,0-1.9,0.3-2.6,1C250.3,62.9,250,63.8,249.9,65L249.9,65z"/>
	</g>
</g>
</svg>
